<?xml version="1.0" encoding="utf-8"?>
<!-- Generator: Adobe Illustrator 24.1.0, SVG Export Plug-In . SVG Version: 6.00 Build 0)  -->
<svg version="1.1" id="Layer_1" xmlns="http://www.w3.org/2000/svg" xmlns:xlink="http://www.w3.org/1999/xlink" x="0px" y="0px"
	 viewBox="0 0 500 500" style="enable-background:new 0 0 500 500;" xml:space="preserve">
<style type="text/css">
	.st0{fill:#D71515;}
	.st1{fill:#C1D7E6;}
	.st2{clip-path:url(#SVGID_2_);fill:#68737F;}
	.st3{clip-path:url(#SVGID_2_);fill:#3E8CC7;}
	.st4{clip-path:url(#SVGID_2_);fill:#D4E4F0;}
	.st5{fill:#D4E4F0;}
	.st6{fill:#68737F;}
</style>
<path class="st0" d="M350.07,361.77"/>
<path class="st0" d="M302.35,262.63"/>
<g>
	<path class="st1" d="M491.53,352.93c0,32.76-26.56,59.32-59.32,59.32c-32.76,0-59.32-26.56-59.32-59.32s26.56-59.32,59.32-59.32
		C464.96,293.61,491.53,320.17,491.53,352.93L491.53,352.93z M491.53,352.93"/>
	<g>
		<defs>
			<rect id="SVGID_1_" y="5.47" width="500" height="491.53"/>
		</defs>
		<clipPath id="SVGID_2_">
			<use xlink:href="#SVGID_1_"  style="overflow:visible;"/>
		</clipPath>
		<path class="st2" d="M432.2,420.73c-27.42,0-52.14-16.52-62.64-41.85c-10.49-25.33-4.69-54.49,14.7-73.88
			c19.39-19.39,48.55-25.19,73.88-14.7c25.34,10.49,41.85,35.22,41.85,62.64C499.96,390.36,469.63,420.69,432.2,420.73L432.2,420.73
			z M432.2,302.08c-20.57,0-39.11,12.39-46.97,31.39c-7.87,19-3.52,40.87,11.02,55.42c14.54,14.54,36.41,18.89,55.42,11.02
			c19-7.87,31.39-26.41,31.39-46.97C483.02,324.87,460.27,302.12,432.2,302.08L432.2,302.08z M432.2,302.08"/>
		<path class="st3" d="M449.15,259.71v84.75h-33.9v-83.85c0-28.18-23.05-51.95-51.23-51.75c-27.93,0.21-50.46,22.91-50.47,50.85
			v142.9c0,51.4-41.11,94-92.51,94.38c-24.85,0.19-48.74-9.55-66.38-27.05c-17.63-17.51-27.55-41.32-27.55-66.17V273.06
			c0.03-7.93-5.47-14.81-13.21-16.52c-29.15-6.27-55.64-21.43-75.82-43.39l24.05-24.05c20.84,23.35,50.65,36.7,81.95,36.72
			c31.3,0.02,61.12-13.31,82-36.62l23.95,23.95c-20.18,21.96-46.67,37.12-75.82,43.39c-7.74,1.72-13.24,8.6-13.21,16.52v129.83
			c0,32.83,26.28,60.09,59.11,60.21c15.77,0.06,30.91-6.17,42.08-17.3c11.17-11.13,17.45-26.26,17.45-42.03V260.79
			c0-46.6,37.17-85.3,83.78-85.82c22.64-0.26,44.45,8.55,60.55,24.47C440.09,215.36,449.15,237.07,449.15,259.71L449.15,259.71z
			 M449.15,259.71"/>
		<path class="st4" d="M62.14,189.1l-24.05,24.05c-50.79-55.08-50.79-139.92,0-195l23.95,23.95
			C24.48,83.91,24.52,147.33,62.14,189.1L62.14,189.1z M62.14,189.1"/>
	</g>
	<path class="st5" d="M288.14,115.64c0.03,36.14-13.58,70.95-38.09,97.5l-23.95-23.95c37.52-41.85,37.52-105.25,0-147.1l23.95-23.95
		C274.56,44.69,288.17,79.51,288.14,115.64L288.14,115.64z M288.14,115.64"/>
	<path class="st6" d="M76.27,30.9c0,14.04-11.38,25.42-25.42,25.42c-14.04,0-25.42-11.38-25.42-25.42S36.81,5.47,50.85,5.47
		C64.89,5.47,76.27,16.86,76.27,30.9L76.27,30.9z M76.27,30.9"/>
	<path class="st6" d="M262.71,30.9c0,14.04-11.38,25.42-25.42,25.42c-14.04,0-25.42-11.38-25.42-25.42s11.38-25.42,25.42-25.42
		C251.33,5.47,262.71,16.86,262.71,30.9L262.71,30.9z M262.71,30.9"/>
	<path class="st5" d="M457.63,352.93c0,14.04-11.38,25.42-25.42,25.42c-14.04,0-25.42-11.38-25.42-25.42
		c0-14.04,11.38-25.42,25.42-25.42C446.24,327.51,457.63,338.89,457.63,352.93L457.63,352.93z M457.63,352.93"/>
	<path class="st6" d="M432.2,386.83c-13.71,0-26.07-8.26-31.32-20.93c-5.25-12.67-2.35-27.24,7.35-36.94
		c9.69-9.7,24.27-12.6,36.94-7.35c12.67,5.25,20.93,17.61,20.93,31.32C466.08,371.65,450.92,386.81,432.2,386.83L432.2,386.83z
		 M432.2,335.98c-6.86,0-13.04,4.13-15.66,10.46c-2.63,6.33-1.18,13.63,3.68,18.47c4.84,4.85,12.14,6.3,18.47,3.68
		c6.33-2.62,10.46-8.8,10.46-15.66C449.14,343.57,441.56,335.99,432.2,335.98L432.2,335.98z M432.2,335.98"/>
</g>
<g>
</g>
<g>
</g>
<g>
</g>
<g>
</g>
<g>
</g>
<g>
</g>
</svg>
