<?xml version="1.0" encoding="utf-8"?>
<!-- Generator: Adobe Illustrator 24.1.0, SVG Export Plug-In . SVG Version: 6.00 Build 0)  -->
<svg version="1.1" id="Layer_1" xmlns="http://www.w3.org/2000/svg" xmlns:xlink="http://www.w3.org/1999/xlink" x="0px" y="0px"
	 viewBox="0 0 500 500" style="enable-background:new 0 0 500 500;" xml:space="preserve">
<style type="text/css">
	.st0{fill:#D71515;}
	.st1{fill:#898989;}
	.st2{fill:#E2E2E2;}
	.st3{fill:#9B9B9B;}
	.st4{fill:#DCD9C8;}
	.st5{opacity:0.1;fill:#1D1D1B;}
	.st6{fill:#BCBCBC;}
	.st7{fill:#DF4937;}
	.st8{fill:#3E8CC7;}
	.st9{fill:#A18D81;}
	.st10{fill:#FFFFFF;}
	.st11{opacity:0.15;fill:#1D1D1B;}
</style>
<path class="st0" d="M350.07,361.77"/>
<g>
	<g>
		<rect x="349.02" y="52.28" class="st1" width="71.66" height="30.68"/>
	</g>
	<rect y="82.96" class="st2" width="500" height="371.63"/>
	<rect y="401" class="st3" width="500" height="53.6"/>
	<rect x="192.88" y="350.64" class="st4" width="114.24" height="85.9"/>
	<g>
		<rect x="79.32" y="52.28" class="st1" width="71.65" height="30.68"/>
	</g>
	<g>
		<path class="st5" d="M150.98,52.28c-12.05,19.27-41.05,25.59-71.65,30.68h71.65V52.28z"/>
	</g>
	<g>
		<path class="st5" d="M420.68,52.28c-12.05,19.27-41.05,25.59-71.66,30.68h71.66V52.28z"/>
	</g>
	<rect x="140.97" y="436.54" class="st6" width="218.06" height="18.05"/>
	<rect x="140.97" y="288.72" class="st7" width="218.06" height="45.14"/>
	<rect x="157.83" y="333.86" class="st1" width="15.07" height="102.68"/>
	<rect x="327.09" y="333.86" class="st1" width="15.07" height="102.68"/>
	<rect x="200.54" y="358.12" class="st8" width="44.72" height="78.42"/>
	<rect x="254.74" y="358.12" class="st8" width="44.72" height="78.42"/>
	<g>
		<rect x="25.19" y="109.87" class="st4" width="54.13" height="72.78"/>
		<rect x="31.46" y="115.79" class="st8" width="41.58" height="60.93"/>
		<rect x="28.71" y="133.28" class="st4" width="46.98" height="5.92"/>
	</g>
	<g>
		<rect x="420.68" y="109.87" class="st4" width="54.13" height="72.78"/>
		<rect x="426.95" y="115.79" class="st8" width="41.58" height="60.93"/>
		<rect x="424.32" y="133.28" class="st4" width="46.98" height="5.92"/>
	</g>
	<g>
		<rect x="103.7" y="109.87" class="st4" width="54.13" height="72.78"/>
		<rect x="109.98" y="115.79" class="st8" width="41.58" height="60.93"/>
		<rect x="107.22" y="133.28" class="st4" width="46.98" height="5.92"/>
	</g>
	<g>
		<rect x="342.17" y="109.87" class="st4" width="54.13" height="72.78"/>
		<rect x="348.44" y="115.79" class="st8" width="41.58" height="60.93"/>
		<rect x="345.8" y="133.28" class="st4" width="46.98" height="5.92"/>
	</g>
	<g>
		<rect x="182.21" y="109.87" class="st4" width="54.13" height="72.78"/>
		<rect x="188.49" y="115.79" class="st8" width="41.58" height="60.93"/>
		<rect x="185.73" y="133.28" class="st4" width="46.98" height="5.92"/>
	</g>
	<g>
		<rect x="263.65" y="109.87" class="st4" width="54.13" height="72.78"/>
		<rect x="269.93" y="115.79" class="st8" width="41.58" height="60.93"/>
		<rect x="267.29" y="133.28" class="st4" width="46.98" height="5.92"/>
	</g>
	<g>
		<rect x="25.19" y="202.11" class="st4" width="54.13" height="72.78"/>
		<rect x="31.46" y="208.04" class="st8" width="41.58" height="60.93"/>
		<rect x="28.71" y="225.53" class="st4" width="46.98" height="5.92"/>
	</g>
	<g>
		<rect x="420.68" y="202.11" class="st4" width="54.13" height="72.78"/>
		<rect x="426.95" y="208.04" class="st8" width="41.58" height="60.93"/>
		<rect x="424.32" y="225.53" class="st4" width="46.98" height="5.92"/>
	</g>
	<g>
		<rect x="103.7" y="202.11" class="st4" width="54.13" height="72.78"/>
		<rect x="109.98" y="208.04" class="st8" width="41.58" height="60.93"/>
		<rect x="107.22" y="225.53" class="st4" width="46.98" height="5.92"/>
	</g>
	<g>
		<rect x="342.17" y="202.11" class="st4" width="54.13" height="72.78"/>
		<rect x="348.44" y="208.04" class="st8" width="41.58" height="60.93"/>
		<rect x="345.8" y="225.53" class="st4" width="46.98" height="5.92"/>
	</g>
	<g>
		<rect x="182.21" y="202.11" class="st4" width="54.13" height="72.78"/>
		<rect x="188.49" y="208.04" class="st8" width="41.58" height="60.93"/>
		<rect x="185.73" y="225.53" class="st4" width="46.98" height="5.92"/>
	</g>
	<rect x="263.65" y="202.11" class="st4" width="54.13" height="72.78"/>
	<rect x="269.93" y="208.04" class="st8" width="41.58" height="60.93"/>
	<rect x="267.29" y="225.53" class="st4" width="46.98" height="5.92"/>
	<g>
		<rect x="25.19" y="294.36" class="st4" width="93.96" height="85.48"/>
		<rect x="30.46" y="300.29" class="st8" width="83.41" height="73.63"/>
		<rect x="28.71" y="317.78" class="st4" width="86.71" height="5.92"/>
	</g>
	<g>
		<rect x="380.85" y="294.36" class="st4" width="93.96" height="85.48"/>
		<rect x="386.13" y="300.29" class="st8" width="83.41" height="73.63"/>
		<rect x="384.58" y="317.78" class="st4" width="86.72" height="5.92"/>
	</g>
	<g>
		<g>
			<path class="st9" d="M177.43,311.39h-9.92v12.99c0,0.49-0.22,0.86-0.65,1.12c-0.44,0.26-0.92,0.39-1.46,0.39
				c-0.53,0-1.02-0.13-1.45-0.39c-0.44-0.26-0.66-0.63-0.66-1.12V295.9c0-0.52,0.22-0.89,0.66-1.12c0.44-0.23,0.92-0.34,1.45-0.34
				c0.53,0,1.02,0.11,1.46,0.34c0.44,0.23,0.65,0.6,0.65,1.12v11.87h9.92V295.9c0-0.52,0.22-0.89,0.66-1.12
				c0.44-0.23,0.92-0.34,1.45-0.34c0.53,0,1.02,0.11,1.46,0.34c0.44,0.23,0.66,0.6,0.66,1.12v28.48c0,0.49-0.22,0.86-0.66,1.12
				c-0.44,0.26-0.92,0.39-1.46,0.39c-0.53,0-1.02-0.13-1.45-0.39c-0.44-0.26-0.66-0.63-0.66-1.12V311.39z"/>
			<path class="st9" d="M198.22,326.14c-1.28,0-2.46-0.17-3.55-0.52c-1.09-0.34-2.03-0.9-2.83-1.66c-0.8-0.76-1.42-1.75-1.87-2.97
				c-0.45-1.22-0.68-2.7-0.68-4.45v-12.52c0-1.75,0.23-3.23,0.68-4.45c0.45-1.22,1.07-2.21,1.87-2.97c0.8-0.76,1.74-1.31,2.83-1.66
				c1.09-0.34,2.27-0.52,3.55-0.52c1.25,0,2.42,0.17,3.5,0.52c1.09,0.35,2.04,0.9,2.85,1.66c0.81,0.76,1.45,1.75,1.91,2.97
				c0.46,1.22,0.7,2.7,0.7,4.45v12.52c0,1.75-0.23,3.23-0.7,4.45c-0.46,1.22-1.1,2.21-1.91,2.97c-0.81,0.76-1.76,1.31-2.85,1.66
				C200.63,325.97,199.46,326.14,198.22,326.14z M202.95,304.03c0-1.89-0.42-3.29-1.25-4.19c-0.84-0.9-2-1.35-3.48-1.35
				c-1.51,0-2.68,0.45-3.49,1.35c-0.81,0.91-1.21,2.3-1.21,4.19v12.52c0,1.89,0.41,3.29,1.21,4.19c0.81,0.91,1.97,1.35,3.49,1.35
				c1.48,0,2.65-0.45,3.48-1.35c0.84-0.9,1.25-2.3,1.25-4.19V304.03z"/>
			<path class="st9" d="M221.95,322.1c1.43,0,2.63-0.37,3.59-1.12c0.95-0.75,1.43-1.89,1.43-3.44c0-1.26-0.32-2.27-0.96-3.03
				c-0.64-0.76-1.43-1.41-2.39-1.94c-0.96-0.53-2-1.03-3.13-1.51c-1.13-0.47-2.17-1.05-3.13-1.72c-0.96-0.67-1.75-1.54-2.39-2.6
				c-0.64-1.06-0.95-2.45-0.95-4.17c0-1.58,0.28-2.9,0.84-3.96c0.56-1.06,1.28-1.91,2.17-2.56c0.89-0.65,1.88-1.1,2.97-1.35
				c1.09-0.26,2.16-0.39,3.23-0.39c0.64,0,1.37,0.05,2.21,0.15c0.84,0.1,1.63,0.27,2.37,0.52c0.74,0.24,1.37,0.56,1.89,0.95
				c0.52,0.39,0.78,0.88,0.78,1.49c0,0.23-0.03,0.48-0.1,0.75c-0.07,0.27-0.18,0.54-0.32,0.79c-0.15,0.26-0.33,0.47-0.56,0.65
				c-0.23,0.17-0.49,0.26-0.78,0.26c-0.27,0-0.54-0.09-0.84-0.26c-0.29-0.17-0.64-0.36-1.06-0.56c-0.41-0.2-0.9-0.39-1.47-0.56
				c-0.57-0.17-1.28-0.26-2.13-0.26c-1.46,0-2.66,0.31-3.58,0.93c-0.93,0.62-1.4,1.61-1.4,2.99c0,1.06,0.32,1.9,0.96,2.52
				c0.64,0.62,1.43,1.16,2.39,1.64c0.96,0.47,2,0.94,3.13,1.4c1.13,0.46,2.17,1.07,3.13,1.83c0.95,0.76,1.75,1.74,2.39,2.93
				c0.64,1.19,0.96,2.73,0.96,4.62c0,1.55-0.23,2.9-0.68,4.04c-0.45,1.15-1.08,2.1-1.89,2.86c-0.81,0.76-1.77,1.33-2.89,1.7
				c-1.12,0.37-2.33,0.56-3.62,0.56c-1.3,0-2.49-0.17-3.56-0.5c-1.08-0.33-2-0.74-2.79-1.25c-0.78-0.5-1.39-1.05-1.81-1.63
				c-0.42-0.59-0.64-1.15-0.64-1.7c0-0.26,0.05-0.53,0.14-0.82c0.09-0.29,0.22-0.55,0.4-0.79c0.17-0.24,0.37-0.44,0.6-0.6
				c0.23-0.16,0.46-0.24,0.69-0.24c0.35,0,0.69,0.18,1.04,0.54c0.34,0.36,0.76,0.74,1.25,1.16c0.49,0.42,1.09,0.8,1.79,1.16
				C219.93,321.92,220.84,322.1,221.95,322.1z"/>
			<path class="st9" d="M237.84,295.9c0-0.4,0.15-0.74,0.44-1.03c0.29-0.29,0.69-0.43,1.19-0.43h7.77c1.22,0,2.36,0.16,3.43,0.49
				c1.06,0.33,1.98,0.88,2.77,1.63c0.78,0.76,1.4,1.74,1.85,2.95c0.45,1.2,0.68,2.67,0.68,4.39v0.34c0,1.72-0.23,3.18-0.69,4.39
				c-0.47,1.21-1.1,2.19-1.91,2.95c-0.81,0.76-1.76,1.31-2.85,1.66c-1.09,0.35-2.26,0.52-3.5,0.52h-4.94v10.63
				c0,0.49-0.22,0.86-0.66,1.12c-0.44,0.26-0.92,0.39-1.46,0.39c-0.53,0-1.02-0.13-1.45-0.39c-0.44-0.26-0.66-0.63-0.66-1.12V295.9z
				 M242.06,298.48v11.66H247c1.49,0,2.65-0.46,3.48-1.38c0.84-0.92,1.25-2.32,1.25-4.22v-0.52c0-1.89-0.42-3.29-1.25-4.19
				c-0.84-0.9-2-1.35-3.48-1.35H242.06z"/>
			<path class="st9" d="M262.21,295.9c0-0.52,0.22-0.89,0.66-1.12c0.44-0.23,0.92-0.34,1.45-0.34c0.53,0,1.02,0.11,1.46,0.34
				c0.44,0.23,0.66,0.6,0.66,1.12v28.48c0,0.49-0.22,0.86-0.66,1.12c-0.44,0.26-0.92,0.39-1.46,0.39c-0.53,0-1.02-0.13-1.45-0.39
				c-0.44-0.26-0.66-0.63-0.66-1.12V295.9z"/>
			<path class="st9" d="M290.21,294.44c0.48,0,0.83,0.21,1.06,0.65c0.23,0.43,0.34,0.89,0.34,1.38c0,0.57-0.12,1.08-0.36,1.51
				c-0.24,0.43-0.59,0.64-1.04,0.64h-6.13v25.77c0,0.49-0.22,0.86-0.66,1.12c-0.44,0.26-0.92,0.39-1.45,0.39
				c-0.53,0-1.02-0.13-1.45-0.39c-0.44-0.26-0.66-0.63-0.66-1.12v-25.77h-6.17c-0.45,0-0.8-0.21-1.04-0.62
				c-0.24-0.42-0.36-0.91-0.36-1.49c0-0.49,0.11-0.95,0.34-1.4c0.22-0.44,0.58-0.67,1.06-0.67H290.21z"/>
			<path class="st9" d="M295.75,325.89c-0.29,0-0.59-0.04-0.9-0.13c-0.31-0.09-0.59-0.22-0.86-0.39c-0.27-0.17-0.48-0.37-0.64-0.6
				c-0.16-0.23-0.24-0.49-0.24-0.77c0-0.17,0.01-0.3,0.04-0.39l7.93-27.88c0.16-0.52,0.49-0.9,1-1.16c0.5-0.26,1.06-0.39,1.67-0.39
				c0.61,0,1.17,0.13,1.69,0.39c0.52,0.26,0.86,0.65,1.02,1.16l7.89,27.88c0.05,0.17,0.08,0.3,0.08,0.39c0,0.26-0.09,0.5-0.26,0.73
				c-0.17,0.23-0.38,0.43-0.64,0.6c-0.25,0.17-0.54,0.31-0.86,0.41c-0.32,0.1-0.62,0.15-0.92,0.15c-0.35,0-0.64-0.07-0.9-0.21
				c-0.25-0.14-0.43-0.39-0.54-0.73l-1.63-6.11h-9.84l-1.63,6.11c-0.11,0.35-0.28,0.59-0.54,0.73
				C296.43,325.81,296.12,325.89,295.75,325.89z M307.74,315.17l-3.98-14.76l-3.98,14.76H307.74z"/>
			<path class="st9" d="M322.11,325.89c-0.45,0-0.87-0.13-1.27-0.39c-0.4-0.26-0.6-0.63-0.6-1.12V295.9c0-0.52,0.22-0.89,0.66-1.12
				c0.44-0.23,0.92-0.34,1.45-0.34c0.53,0,1.02,0.11,1.46,0.34c0.44,0.23,0.66,0.6,0.66,1.12v25.94h10.36
				c0.42,0,0.74,0.21,0.95,0.62c0.21,0.42,0.32,0.88,0.32,1.4c0,0.49-0.11,0.95-0.32,1.38c-0.21,0.43-0.53,0.65-0.95,0.65H322.11z"
				/>
		</g>
		<g>
			<path class="st10" d="M177.43,311.39h-9.92v12.99c0,0.49-0.22,0.86-0.65,1.12c-0.44,0.26-0.92,0.39-1.46,0.39
				c-0.53,0-1.02-0.13-1.45-0.39c-0.44-0.26-0.66-0.63-0.66-1.12V295.9c0-0.52,0.22-0.89,0.66-1.12c0.44-0.23,0.92-0.34,1.45-0.34
				c0.53,0,1.02,0.11,1.46,0.34c0.44,0.23,0.65,0.6,0.65,1.12v11.87h9.92V295.9c0-0.52,0.22-0.89,0.66-1.12
				c0.44-0.23,0.92-0.34,1.45-0.34c0.53,0,1.02,0.11,1.46,0.34c0.44,0.23,0.66,0.6,0.66,1.12v28.48c0,0.49-0.22,0.86-0.66,1.12
				c-0.44,0.26-0.92,0.39-1.46,0.39c-0.53,0-1.02-0.13-1.45-0.39c-0.44-0.26-0.66-0.63-0.66-1.12V311.39z"/>
			<path class="st10" d="M198.22,326.14c-1.28,0-2.46-0.17-3.55-0.52c-1.09-0.34-2.03-0.9-2.83-1.66c-0.8-0.76-1.42-1.75-1.87-2.97
				c-0.45-1.22-0.68-2.7-0.68-4.45v-12.52c0-1.75,0.23-3.23,0.68-4.45c0.45-1.22,1.07-2.21,1.87-2.97c0.8-0.76,1.74-1.31,2.83-1.66
				c1.09-0.34,2.27-0.52,3.55-0.52c1.25,0,2.42,0.17,3.5,0.52c1.09,0.35,2.04,0.9,2.85,1.66c0.81,0.76,1.45,1.75,1.91,2.97
				c0.46,1.22,0.7,2.7,0.7,4.45v12.52c0,1.75-0.23,3.23-0.7,4.45c-0.46,1.22-1.1,2.21-1.91,2.97c-0.81,0.76-1.76,1.31-2.85,1.66
				C200.63,325.97,199.46,326.14,198.22,326.14z M202.95,304.03c0-1.89-0.42-3.29-1.25-4.19c-0.84-0.9-2-1.35-3.48-1.35
				c-1.51,0-2.68,0.45-3.49,1.35c-0.81,0.91-1.21,2.3-1.21,4.19v12.52c0,1.89,0.41,3.29,1.21,4.19c0.81,0.91,1.97,1.35,3.49,1.35
				c1.48,0,2.65-0.45,3.48-1.35c0.84-0.9,1.25-2.3,1.25-4.19V304.03z"/>
			<path class="st10" d="M221.95,322.1c1.43,0,2.63-0.37,3.59-1.12c0.95-0.75,1.43-1.89,1.43-3.44c0-1.26-0.32-2.27-0.96-3.03
				c-0.64-0.76-1.43-1.41-2.39-1.94c-0.96-0.53-2-1.03-3.13-1.51c-1.13-0.47-2.17-1.05-3.13-1.72c-0.96-0.67-1.75-1.54-2.39-2.6
				c-0.64-1.06-0.95-2.45-0.95-4.17c0-1.58,0.28-2.9,0.84-3.96c0.56-1.06,1.28-1.91,2.17-2.56c0.89-0.65,1.88-1.1,2.97-1.35
				c1.09-0.26,2.16-0.39,3.23-0.39c0.64,0,1.37,0.05,2.21,0.15c0.84,0.1,1.63,0.27,2.37,0.52c0.74,0.24,1.37,0.56,1.89,0.95
				c0.52,0.39,0.78,0.88,0.78,1.49c0,0.23-0.03,0.48-0.1,0.75c-0.07,0.27-0.18,0.54-0.32,0.79c-0.15,0.26-0.33,0.47-0.56,0.65
				c-0.23,0.17-0.49,0.26-0.78,0.26c-0.27,0-0.54-0.09-0.84-0.26c-0.29-0.17-0.64-0.36-1.06-0.56c-0.41-0.2-0.9-0.39-1.47-0.56
				c-0.57-0.17-1.28-0.26-2.13-0.26c-1.46,0-2.66,0.31-3.58,0.93c-0.93,0.62-1.4,1.61-1.4,2.99c0,1.06,0.32,1.9,0.96,2.52
				c0.64,0.62,1.43,1.16,2.39,1.64c0.96,0.47,2,0.94,3.13,1.4c1.13,0.46,2.17,1.07,3.13,1.83c0.95,0.76,1.75,1.74,2.39,2.93
				c0.64,1.19,0.96,2.73,0.96,4.62c0,1.55-0.23,2.9-0.68,4.04c-0.45,1.15-1.08,2.1-1.89,2.86c-0.81,0.76-1.77,1.33-2.89,1.7
				c-1.12,0.37-2.33,0.56-3.62,0.56c-1.3,0-2.49-0.17-3.56-0.5c-1.08-0.33-2-0.74-2.79-1.25c-0.78-0.5-1.39-1.05-1.81-1.63
				c-0.42-0.59-0.64-1.15-0.64-1.7c0-0.26,0.05-0.53,0.14-0.82c0.09-0.29,0.22-0.55,0.4-0.79c0.17-0.24,0.37-0.44,0.6-0.6
				c0.23-0.16,0.46-0.24,0.69-0.24c0.35,0,0.69,0.18,1.04,0.54c0.34,0.36,0.76,0.74,1.25,1.16c0.49,0.42,1.09,0.8,1.79,1.16
				C219.93,321.92,220.84,322.1,221.95,322.1z"/>
			<path class="st10" d="M237.84,295.9c0-0.4,0.15-0.74,0.44-1.03c0.29-0.29,0.69-0.43,1.19-0.43h7.77c1.22,0,2.36,0.16,3.43,0.49
				c1.06,0.33,1.98,0.88,2.77,1.63c0.78,0.76,1.4,1.74,1.85,2.95c0.45,1.2,0.68,2.67,0.68,4.39v0.34c0,1.72-0.23,3.18-0.69,4.39
				c-0.47,1.21-1.1,2.19-1.91,2.95c-0.81,0.76-1.76,1.31-2.85,1.66c-1.09,0.35-2.26,0.52-3.5,0.52h-4.94v10.63
				c0,0.49-0.22,0.86-0.66,1.12c-0.44,0.26-0.92,0.39-1.46,0.39c-0.53,0-1.02-0.13-1.45-0.39c-0.44-0.26-0.66-0.63-0.66-1.12V295.9z
				 M242.06,298.48v11.66H247c1.49,0,2.65-0.46,3.48-1.38c0.84-0.92,1.25-2.32,1.25-4.22v-0.52c0-1.89-0.42-3.29-1.25-4.19
				c-0.84-0.9-2-1.35-3.48-1.35H242.06z"/>
			<path class="st10" d="M262.21,295.9c0-0.52,0.22-0.89,0.66-1.12c0.44-0.23,0.92-0.34,1.45-0.34c0.53,0,1.02,0.11,1.46,0.34
				c0.44,0.23,0.66,0.6,0.66,1.12v28.48c0,0.49-0.22,0.86-0.66,1.12c-0.44,0.26-0.92,0.39-1.46,0.39c-0.53,0-1.02-0.13-1.45-0.39
				c-0.44-0.26-0.66-0.63-0.66-1.12V295.9z"/>
			<path class="st10" d="M290.21,294.44c0.48,0,0.83,0.21,1.06,0.65c0.23,0.43,0.34,0.89,0.34,1.38c0,0.57-0.12,1.08-0.36,1.51
				c-0.24,0.43-0.59,0.64-1.04,0.64h-6.13v25.77c0,0.49-0.22,0.86-0.66,1.12c-0.44,0.26-0.92,0.39-1.45,0.39
				c-0.53,0-1.02-0.13-1.45-0.39c-0.44-0.26-0.66-0.63-0.66-1.12v-25.77h-6.17c-0.45,0-0.8-0.21-1.04-0.62
				c-0.24-0.42-0.36-0.91-0.36-1.49c0-0.49,0.11-0.95,0.34-1.4c0.22-0.44,0.58-0.67,1.06-0.67H290.21z"/>
			<path class="st10" d="M295.75,325.89c-0.29,0-0.59-0.04-0.9-0.13c-0.31-0.09-0.59-0.22-0.86-0.39c-0.27-0.17-0.48-0.37-0.64-0.6
				c-0.16-0.23-0.24-0.49-0.24-0.77c0-0.17,0.01-0.3,0.04-0.39l7.93-27.88c0.16-0.52,0.49-0.9,1-1.16c0.5-0.26,1.06-0.39,1.67-0.39
				c0.61,0,1.17,0.13,1.69,0.39c0.52,0.26,0.86,0.65,1.02,1.16l7.89,27.88c0.05,0.17,0.08,0.3,0.08,0.39c0,0.26-0.09,0.5-0.26,0.73
				c-0.17,0.23-0.38,0.43-0.64,0.6c-0.25,0.17-0.54,0.31-0.86,0.41c-0.32,0.1-0.62,0.15-0.92,0.15c-0.35,0-0.64-0.07-0.9-0.21
				c-0.25-0.14-0.43-0.39-0.54-0.73l-1.63-6.11h-9.84l-1.63,6.11c-0.11,0.35-0.28,0.59-0.54,0.73
				C296.43,325.81,296.12,325.89,295.75,325.89z M307.74,315.17l-3.98-14.76l-3.98,14.76H307.74z"/>
			<path class="st10" d="M322.11,325.89c-0.45,0-0.87-0.13-1.27-0.39c-0.4-0.26-0.6-0.63-0.6-1.12V295.9c0-0.52,0.22-0.89,0.66-1.12
				c0.44-0.23,0.92-0.34,1.45-0.34c0.53,0,1.02,0.11,1.46,0.34c0.44,0.23,0.66,0.6,0.66,1.12v25.94h10.36
				c0.42,0,0.74,0.21,0.95,0.62c0.21,0.42,0.32,0.88,0.32,1.4c0,0.49-0.11,0.95-0.32,1.38c-0.21,0.43-0.53,0.65-0.95,0.65H322.11z"
				/>
		</g>
	</g>
	<path class="st11" d="M180,327.93c-13.35,0-26.39-0.48-39.04-1.36v7.28h218.06v-43.82C323.86,312.65,256.89,327.93,180,327.93z"/>
	<path class="st5" d="M25.19,182.65h54.13v-72.78C74.11,145.07,61.01,173.55,25.19,182.65z"/>
	<path class="st5" d="M103.64,182.65h54.13v-72.78C152.56,145.07,139.46,173.55,103.64,182.65z"/>
	<path class="st5" d="M182.09,182.65h54.13v-72.78C231.02,145.07,217.91,173.55,182.09,182.65z"/>
	<path class="st5" d="M263.71,182.65h54.13v-72.78C312.63,145.07,299.53,173.55,263.71,182.65z"/>
	<path class="st5" d="M342.17,182.65h54.13v-72.78C391.09,145.07,377.98,173.55,342.17,182.65z"/>
	<path class="st5" d="M25.19,274.9h54.13v-72.78C74.11,237.32,61.01,265.8,25.19,274.9z"/>
	<path class="st5" d="M103.64,274.9h54.13v-72.78C152.56,237.32,139.46,265.8,103.64,274.9z"/>
	<path class="st5" d="M182.09,274.9h54.13v-72.78C231.02,237.32,217.91,265.8,182.09,274.9z"/>
	<path class="st5" d="M263.71,274.9h54.13v-72.78C312.63,237.32,299.53,265.8,263.71,274.9z"/>
	<path class="st5" d="M342.17,274.9h54.13v-72.78C391.09,237.32,377.98,265.8,342.17,274.9z"/>
	<path class="st5" d="M420.62,182.65h54.13v-72.78C469.54,145.07,456.44,173.55,420.62,182.65z"/>
	<path class="st5" d="M420.62,274.9h54.13v-72.78C469.54,237.32,456.44,265.8,420.62,274.9z"/>
	<path class="st5" d="M25.19,379.84h93.96v-85.48C113.68,349.14,79.65,374.87,25.19,379.84z"/>
	<path class="st5" d="M380.96,379.84h93.96v-85.48C469.45,349.14,435.42,374.87,380.96,379.84z"/>
	<polygon class="st5" points="341.79,345.7 158.21,345.7 140.97,333.86 359.03,333.86 	"/>
	<path class="st5" d="M245.26,436.54h-44.72c20.26-13.08,38.36-31.4,44.72-78.42V436.54z"/>
	<path class="st5" d="M299.46,436.54h-44.72c20.25-13.08,38.36-31.4,44.72-78.42V436.54z"/>
	<rect x="232.07" y="390.28" class="st4" width="8.86" height="14.1"/>
	<rect x="259.07" y="390.28" class="st4" width="8.86" height="14.1"/>
</g>
<g>
</g>
<g>
</g>
<g>
</g>
<g>
</g>
<g>
</g>
<g>
</g>
</svg>
