<?xml version="1.0" encoding="utf-8"?>
<!-- Generator: Adobe Illustrator 24.1.0, SVG Export Plug-In . SVG Version: 6.00 Build 0)  -->
<svg version="1.1" id="Layer_1" xmlns="http://www.w3.org/2000/svg" xmlns:xlink="http://www.w3.org/1999/xlink" x="0px" y="0px"
	 viewBox="0 0 500 500" style="enable-background:new 0 0 500 500;" xml:space="preserve">
<style type="text/css">
	.st0{clip-path:url(#SVGID_2_);fill:#63C6F8;}
	.st1{clip-path:url(#SVGID_2_);fill:#23A5F6;}
	.st2{clip-path:url(#SVGID_2_);fill:#027893;}
	.st3{clip-path:url(#SVGID_2_);fill:#00607F;}
	.st4{fill:#027893;}
	.st5{fill:#00607F;}
	.st6{fill:#E4EDEF;}
	.st7{fill:#BFDFE7;}
</style>
<g>
	<g>
		<defs>
			<rect id="SVGID_1_" x="46.33" y="1.7" width="417.85" height="498.3"/>
		</defs>
		<clipPath id="SVGID_2_">
			<use xlink:href="#SVGID_1_"  style="overflow:visible;"/>
		</clipPath>
		<path class="st0" d="M456.75,362.45l-122.92,74.68c0-12.13,0.55-20.24-3.33-32.15l111.1-67.48c6.89-4.19,15.88-1.99,20.06,4.91
			C465.84,349.29,463.65,358.27,456.75,362.45L456.75,362.45z M456.75,362.45"/>
		<path class="st0" d="M456.75,362.45l-122.92,74.68c0-12.13,0.55-20.24-3.33-32.15l111.1-67.48c6.89-4.19,15.88-1.99,20.06,4.91
			C465.84,349.29,463.65,358.27,456.75,362.45L456.75,362.45z M456.75,362.45"/>
		<path class="st1" d="M456.75,362.45l-49.9,30.31l-15.05-25.02l49.79-30.25c6.89-4.19,15.88-1.99,20.06,4.91
			C465.84,349.29,463.65,358.27,456.75,362.45L456.75,362.45z M456.75,362.45"/>
		<path class="st2" d="M252.24,50.49L177.16,95.6L152.1,53.89c-4.16-6.92-1.91-15.89,4.99-20.04l50.05-30.07
			c6.92-4.16,15.9-1.89,20.04,4.99L252.24,50.49z M252.24,50.49"/>
		<path class="st3" d="M252.24,50.49l-37.56,22.57l-2.5-4.18L182.1,18.82l25.04-15.05c6.92-4.16,15.9-1.89,20.04,4.99l22.56,37.54
			L252.24,50.49z M252.24,50.49"/>
	</g>
	<path class="st4" d="M387.69,303.69l-50.04,30.08c-6.99,4.18-15.92,1.86-20.04-5l-24.89-41.44c19.39-11.65,56-33.65,75.08-45.11
		l24.9,41.44C396.84,290.57,394.61,299.54,387.69,303.69L387.69,303.69z M387.69,303.69"/>
	<path class="st5" d="M387.69,303.69l-25.25,15.18l-29.93-49.79l-2.5-4.17c14.09-8.46,28.17-16.91,37.79-22.69l2.5,4.17l22.41,37.27
		C396.84,290.57,394.61,299.54,387.69,303.69L387.69,303.69z M387.69,303.69"/>
	<path class="st6" d="M387.55,218.98C387.2,218.4,282.18,43.6,281.8,43.04c-4.37-6.36-12.94-8.22-19.55-4.24L162.14,98.95
		c-6.9,4.15-9.14,13.12-4.99,20.03l105.26,175.19c4.17,6.94,13.18,9.14,20.08,4.97c2.26-1.36,100.06-60.12,100.06-60.12
		C389.46,234.87,391.7,225.89,387.55,218.98L387.55,218.98z M387.55,218.98"/>
	<path class="st7" d="M382.55,239.01c-25.7,15.44-19.39,11.66-50.04,30.06c-5.19-8.63-115.78-192.61-120.32-200.2
		c44.29-26.62,34.06-20.47,50.06-30.08c6.62-3.97,15.19-2.11,19.56,4.24c0.38,0.57,105.39,175.36,105.74,175.95
		C391.7,225.89,389.46,234.86,382.55,239.01L382.55,239.01z M382.55,239.01"/>
	<path class="st7" d="M134.31,309.24c0,24.15,19.65,43.8,43.8,43.8h87.59c4.68,0,8.99,2.23,11.7,5.88
		c-41.46-7.32-79.83,24.82-79.83,67.11v14.6h-19.46c-72.45,0-131.39-58.94-131.39-131.39c0-71.06,56.68-129.13,127.2-131.34
		l34.29-20.81c22.74-13.75,52.52-6.49,66.38,16.18c14.07,22.99,6.69,52.99-16.44,66.83l-38.85,23.28c-2.28,1.36-4.87,2.07-7.52,2.07
		l-33.67-0.01C153.96,265.45,134.31,285.1,134.31,309.24L134.31,309.24z M134.31,309.24"/>
	<path class="st6" d="M338.7,426.03v49.64H192.71v-49.64c0-40.25,32.75-72.99,72.99-72.99C305.95,353.04,338.7,385.78,338.7,426.03
		L338.7,426.03z M338.7,426.03"/>
	<path class="st4" d="M382.49,470.8H148.91c-8.06,0-14.6,6.53-14.6,14.6c0,8.06,6.54,14.6,14.6,14.6h233.58
		c8.07,0,14.6-6.53,14.6-14.6C397.09,477.34,390.56,470.8,382.49,470.8L382.49,470.8z M382.49,470.8"/>
	<path class="st4" d="M280.3,426.03c0,8.07-6.53,14.6-14.6,14.6c-8.06,0-14.6-6.53-14.6-14.6c0-8.06,6.54-14.6,14.6-14.6
		C273.77,411.43,280.3,417.97,280.3,426.03L280.3,426.03z M280.3,426.03"/>
</g>
<g>
</g>
<g>
</g>
<g>
</g>
<g>
</g>
<g>
</g>
<g>
</g>
</svg>
