<?xml version="1.0" encoding="utf-8"?>
<!-- Generator: Adobe Illustrator 24.1.0, SVG Export Plug-In . SVG Version: 6.00 Build 0)  -->
<svg version="1.1" id="Layer_1" xmlns="http://www.w3.org/2000/svg" xmlns:xlink="http://www.w3.org/1999/xlink" x="0px" y="0px"
	 viewBox="0 0 154 54" style="enable-background:new 0 0 154 54;" xml:space="preserve">
<style type="text/css">
	.st0{fill:#679326;}
	.st1{opacity:0.46;fill:url(#SVGID_1_);}
	.st2{fill:url(#SVGID_2_);stroke:url(#SVGID_3_);stroke-width:2;stroke-miterlimit:10;}
	.st3{opacity:0.45;}
	.st4{fill:url(#SVGID_4_);stroke:url(#SVGID_5_);stroke-miterlimit:10;}
	.st5{fill:url(#SVGID_6_);stroke:url(#SVGID_7_);stroke-width:0.25;stroke-miterlimit:10;}
	.st6{opacity:0.46;fill:url(#SVGID_8_);}
	.st7{fill:#27A0D6;}
	.st8{fill:url(#SVGID_9_);}
	.st9{opacity:0.46;fill:url(#SVGID_10_);}
	.st10{fill:url(#SVGID_11_);}
	.st11{opacity:0.3;fill:url(#SVGID_12_);stroke:#27A0D6;stroke-width:0.25;stroke-miterlimit:10;}
	.st12{opacity:0.3;fill:url(#SVGID_13_);stroke:#27A0D6;stroke-width:0.25;stroke-miterlimit:10;}
	.st13{stroke:#000000;stroke-miterlimit:10;}
</style>
<g>
	<path class="st0" d="M52.3,25.6c-0.59,2.95-5.05,8.46-6.76,10.17s-5.84,5.45-8.6,7.74c-2.76,2.3-7.61,9.32-7.61,9.32
		s-0.77,0.46-1.61,0.49c-0.01,0.01-0.01,0.01-0.02,0.01c-0.01,0-0.01,0-0.02-0.01c-0.83-0.03-1.61-0.49-1.61-0.49
		s-4.86-7.02-7.61-9.32c-2.76-2.29-6.89-6.04-8.6-7.74S3.7,28.55,3.11,25.6c-0.59-2.96-0.26-5.64-0.26-5.64s0.92,6.96,5.91,12.4
		l5.71,5.19c0,0,5.45,4.53,7.94,7.41l1.46,1.97l1.53,2.1l0.66,1.14c0,0,0.29,0.49,1.63,0.56h0.03c1.33-0.07,1.63-0.56,1.63-0.56
		l0.66-1.14l1.53-2.1L33,44.96c2.49-2.89,7.94-7.41,7.94-7.41l5.71-5.19c4.99-5.44,5.91-12.4,5.91-12.4S52.89,22.65,52.3,25.6z"/>
	<radialGradient id="SVGID_1_" cx="27.7039" cy="36.6451" r="21.2211" gradientUnits="userSpaceOnUse">
		<stop  offset="0.4821" style="stop-color:#679326"/>
		<stop  offset="0.5186" style="stop-color:#6F9931"/>
		<stop  offset="0.5835" style="stop-color:#84A84F"/>
		<stop  offset="0.6692" style="stop-color:#A6C081"/>
		<stop  offset="0.7711" style="stop-color:#D5E1C3"/>
		<stop  offset="0.8538" style="stop-color:#FFFFFF"/>
	</radialGradient>
	<path class="st1" d="M52.3,25.6c-0.59,2.95-5.05,8.46-6.76,10.17s-5.84,5.45-8.6,7.74c-2.76,2.3-7.61,9.32-7.61,9.32
		s-0.77,0.46-1.61,0.49c-0.01,0.01-0.01,0.01-0.02,0.01c-0.01,0-0.01,0-0.02-0.01c-0.83-0.03-1.61-0.49-1.61-0.49
		s-4.86-7.02-7.61-9.32c-2.76-2.29-6.89-6.04-8.6-7.74S3.7,28.55,3.11,25.6c-0.59-2.96-0.26-5.64-0.26-5.64s0.92,6.96,5.91,12.4
		l5.71,5.19c0,0,5.45,4.53,7.94,7.41l1.46,1.97l1.53,2.1l0.66,1.14c0,0,0.29,0.49,1.63,0.56h0.03c1.33-0.07,1.63-0.56,1.63-0.56
		l0.66-1.14l1.53-2.1L33,44.96c2.49-2.89,7.94-7.41,7.94-7.41l5.71-5.19c4.99-5.44,5.91-12.4,5.91-12.4S52.89,22.65,52.3,25.6z"/>
	<g>
		<linearGradient id="SVGID_2_" gradientUnits="userSpaceOnUse" x1="30.4949" y1="14.3311" x2="40.4095" y2="31.5037">
			<stop  offset="0" style="stop-color:#9FC73F"/>
			<stop  offset="0.8538" style="stop-color:#679326"/>
		</linearGradient>
		<linearGradient id="SVGID_3_" gradientUnits="userSpaceOnUse" x1="29.9465" y1="13.3812" x2="40.9573" y2="32.4525">
			<stop  offset="0" style="stop-color:#9FC73F"/>
			<stop  offset="0.8538" style="stop-color:#679326"/>
		</linearGradient>
		<path class="st2" d="M33.96,14.28l3.76-0.06c1.45,0,2.7,0.42,3.77,1.26c1.21,1.06,1.83,2.38,1.86,3.96c0,1.84-0.56,3.27-1.67,4.3
			c-1.11,1.03-2.5,1.54-4.15,1.54c-0.99-0.01-1.49-0.3-1.51-0.87c0-0.1,0.02-0.15,0.06-0.15c0.04,0,0.18,0.03,0.41,0.1
			c0.23,0.07,0.46,0.1,0.67,0.1c1.22,0,2.15-0.44,2.79-1.32c0.64-0.88,0.97-1.95,0.97-3.21c0-1.95-0.6-3.31-1.81-4.11
			c-0.69-0.45-1.48-0.68-2.39-0.67c-0.9,0-1.4,0.1-1.49,0.28c-0.09,0.24-0.13,0.97-0.13,2.18v12.37c0,1.12,0.04,1.84,0.13,2.15
			c0.05,0.21,0.56,0.36,1.52,0.45c0.13,0.01,0.23,0.01,0.3,0.01c0.1,0.13,0.13,0.29,0.1,0.49c-0.03,0.2-0.06,0.32-0.1,0.36
			c-1.82-0.1-2.86-0.14-3.13-0.14c-0.27,0-1.3,0.05-3.09,0.14c-0.11-0.12-0.14-0.28-0.1-0.48c0.04-0.2,0.07-0.32,0.1-0.36
			c0.51,0,0.94-0.06,1.28-0.17c0.34-0.11,0.52-0.21,0.55-0.3c0.09-0.32,0.13-1.04,0.13-2.15v-12.4c0-1.12-0.04-1.84-0.13-2.15
			c-0.05-0.21-0.56-0.36-1.52-0.45c-0.13-0.01-0.23-0.01-0.3-0.01c-0.1-0.13-0.13-0.29-0.1-0.49c0.03-0.2,0.06-0.32,0.1-0.36
			C32.66,14.23,33.7,14.28,33.96,14.28z"/>
	</g>
	<g class="st3">
		<linearGradient id="SVGID_4_" gradientUnits="userSpaceOnUse" x1="31.1644" y1="23.5656" x2="43.7932" y2="23.5656">
			<stop  offset="0" style="stop-color:#9FC73F"/>
			<stop  offset="0.8538" style="stop-color:#FFFFFF"/>
		</linearGradient>
		<linearGradient id="SVGID_5_" gradientUnits="userSpaceOnUse" x1="30.6644" y1="23.5657" x2="44.2932" y2="23.5657">
			<stop  offset="0" style="stop-color:#9FC73F"/>
			<stop  offset="0.8538" style="stop-color:#FFFFFF"/>
		</linearGradient>
		<path class="st4" d="M34.4,14.06L38.16,14c1.45,0,2.7,0.42,3.77,1.26c1.21,1.06,1.83,2.38,1.86,3.96c0,1.84-0.56,3.27-1.67,4.3
			c-1.11,1.03-2.5,1.54-4.15,1.54c-0.99-0.01-1.49-0.3-1.51-0.87c0-0.1,0.02-0.15,0.06-0.15s0.18,0.03,0.41,0.1
			c0.23,0.07,0.46,0.1,0.67,0.1c1.22,0,2.15-0.44,2.79-1.32c0.64-0.88,0.97-1.95,0.97-3.21c0-1.95-0.6-3.31-1.81-4.11
			c-0.69-0.45-1.48-0.68-2.39-0.67c-0.9,0-1.4,0.1-1.49,0.28c-0.09,0.24-0.13,0.97-0.13,2.18v12.37c0,1.12,0.04,1.84,0.13,2.15
			c0.05,0.21,0.56,0.36,1.52,0.45c0.13,0.01,0.23,0.01,0.3,0.01c0.1,0.13,0.13,0.29,0.1,0.49c-0.03,0.2-0.06,0.32-0.1,0.36
			c-1.82-0.1-2.86-0.14-3.13-0.14s-1.3,0.05-3.09,0.14c-0.11-0.12-0.14-0.28-0.1-0.48c0.04-0.2,0.07-0.32,0.1-0.36
			c0.51,0,0.94-0.06,1.28-0.17c0.34-0.11,0.52-0.21,0.55-0.3c0.09-0.32,0.13-1.04,0.13-2.15v-12.4c0-1.12-0.04-1.84-0.13-2.15
			c-0.05-0.21-0.56-0.36-1.52-0.45c-0.13-0.01-0.23-0.01-0.3-0.01c-0.1-0.13-0.13-0.29-0.1-0.49c0.03-0.2,0.06-0.32,0.1-0.36
			C33.1,14.01,34.14,14.06,34.4,14.06z"/>
	</g>
	<linearGradient id="SVGID_6_" gradientUnits="userSpaceOnUse" x1="2.8024" y1="10.4602" x2="25.8809" y2="10.4602">
		<stop  offset="0" style="stop-color:#9FC73F"/>
		<stop  offset="0.8538" style="stop-color:#679326"/>
	</linearGradient>
	<linearGradient id="SVGID_7_" gradientUnits="userSpaceOnUse" x1="2.6774" y1="10.4033" x2="26.6771" y2="10.4033">
		<stop  offset="0" style="stop-color:#9FC73F"/>
		<stop  offset="0.8538" style="stop-color:#679326"/>
	</linearGradient>
	<path class="st5" d="M25.88,7.29c-3.09-2.01-7.03-2.87-11.05-2.09C8.18,6.48,3.4,11.81,2.86,17.92C2.24,10.95,6.83,4.55,13.64,3.24
		C18.27,2.35,22.81,4.02,25.88,7.29z"/>
	<linearGradient id="SVGID_8_" gradientUnits="userSpaceOnUse" x1="2.8024" y1="10.4602" x2="25.8809" y2="10.4602">
		<stop  offset="0" style="stop-color:#679326"/>
		<stop  offset="0.093" style="stop-color:#729B35"/>
		<stop  offset="0.2729" style="stop-color:#8EAF5D"/>
		<stop  offset="0.5215" style="stop-color:#BBCF9E"/>
		<stop  offset="0.8268" style="stop-color:#F9FBF7"/>
		<stop  offset="0.8538" style="stop-color:#FFFFFF"/>
	</linearGradient>
	<path class="st6" d="M25.88,7.29c-3.09-2.01-7.03-2.87-11.05-2.09C8.18,6.48,3.4,11.81,2.86,17.92C2.24,10.95,6.83,4.55,13.64,3.24
		C18.27,2.35,22.81,4.02,25.88,7.29z"/>
	<path class="st7" d="M52.28,16.77c0,0-0.85-8.4-10.7-10.17c0,0-7.61-1.25-12.99,4.59s-6.76,9.91-6.76,9.91s-2.63,4.86-0.98,10.76
		c1.64,5.91,7.94,12.4,7.94,12.4s-6.96-3.48-10.96-9.91s-4.13-13.19-4.13-13.19c-0.04,0.13,3.48-0.17,5.51-3.02
		c1.75-2.45,5.72-7.98,8.47-10.3c4.75-4.02,7.13-4.55,11.03-4.59c3.61-0.04,8.47,1.64,10.83,4.59
		C51.89,10.79,52.28,16.77,52.28,16.77z"/>
	<linearGradient id="SVGID_9_" gradientUnits="userSpaceOnUse" x1="15.2467" y1="16.8978" x2="9.8638" y2="11.5149">
		<stop  offset="0" style="stop-color:#9FC73F"/>
		<stop  offset="0.8538" style="stop-color:#679326"/>
	</linearGradient>
	<circle class="st8" cx="12.56" cy="14.21" r="3.81"/>
	
		<linearGradient id="SVGID_10_" gradientUnits="userSpaceOnUse" x1="383.5487" y1="-698.8326" x2="390.6997" y2="-698.8326" gradientTransform="matrix(-0.4342 -0.925 0.9401 -0.4413 837.8182 63.9977)">
		<stop  offset="0" style="stop-color:#679326"/>
		<stop  offset="0.093" style="stop-color:#729B35"/>
		<stop  offset="0.2729" style="stop-color:#8EAF5D"/>
		<stop  offset="0.5215" style="stop-color:#BBCF9E"/>
		<stop  offset="0.8268" style="stop-color:#F9FBF7"/>
		<stop  offset="0.8538" style="stop-color:#FFFFFF"/>
	</linearGradient>
	<path class="st9" d="M11.19,10.99c1.86-0.87,4.06-0.1,4.91,1.73c0.86,1.83,0.05,4.01-1.81,4.89s-4.06,0.1-4.91-1.73
		C8.52,14.05,9.33,11.87,11.19,10.99z"/>
	<linearGradient id="SVGID_11_" gradientUnits="userSpaceOnUse" x1="1.5272" y1="20.7412" x2="32.1571" y2="38.4254">
		<stop  offset="0" style="stop-color:#89CDF6"/>
		<stop  offset="0.1492" style="stop-color:#70BDEE"/>
		<stop  offset="0.4635" style="stop-color:#3295D9"/>
		<stop  offset="0.6769" style="stop-color:#0478C9"/>
	</linearGradient>
	<path class="st10" d="M5.49,13.88c0,0,0.05,0.11,0.13,0.3c0.67,1.45,3.83,7.69,8.07,6.99c0,0,0.46,7.61,4.13,13.19
		s10.96,9.91,10.96,9.91s-6.04-1.44-9.58-4.4c-3.54-2.95-7.74-7.48-9.32-10.89S5.49,18.67,5.49,13.88z"/>
	<radialGradient id="SVGID_12_" cx="32.9866" cy="23.7546" r="19.9105" gradientUnits="userSpaceOnUse">
		<stop  offset="0.1897" style="stop-color:#27A0D6"/>
		<stop  offset="0.411" style="stop-color:#29A1D6"/>
		<stop  offset="0.4907" style="stop-color:#30A4D8"/>
		<stop  offset="0.5476" style="stop-color:#3BA9DA"/>
		<stop  offset="0.5935" style="stop-color:#4CB0DD"/>
		<stop  offset="0.6329" style="stop-color:#62BAE1"/>
		<stop  offset="0.6677" style="stop-color:#7EC6E6"/>
		<stop  offset="0.6993" style="stop-color:#9ED4ED"/>
		<stop  offset="0.7283" style="stop-color:#C4E5F4"/>
		<stop  offset="0.7541" style="stop-color:#EDF7FC"/>
		<stop  offset="0.7641" style="stop-color:#FFFFFF"/>
	</radialGradient>
	<path class="st11" d="M52.28,16.77c0,0-0.85-8.4-10.7-10.17c0,0-7.61-1.25-12.99,4.59s-6.76,9.91-6.76,9.91s-2.63,4.86-0.98,10.76
		c1.64,5.91,7.94,12.4,7.94,12.4s-6.96-3.48-10.96-9.91s-4.13-13.19-4.13-13.19c-0.04,0.13,3.48-0.17,5.51-3.02
		c1.75-2.45,5.72-7.98,8.47-10.3c4.75-4.02,7.13-4.55,11.03-4.59c3.61-0.04,8.47,1.64,10.83,4.59
		C51.89,10.79,52.28,16.77,52.28,16.77z"/>
	<linearGradient id="SVGID_13_" gradientUnits="userSpaceOnUse" x1="1.5272" y1="20.7412" x2="32.1571" y2="38.4254">
		<stop  offset="0" style="stop-color:#FFFFFF"/>
		<stop  offset="0.0848" style="stop-color:#E6F2FA"/>
		<stop  offset="0.2648" style="stop-color:#A7D0EC"/>
		<stop  offset="0.5233" style="stop-color:#439AD7"/>
		<stop  offset="0.6769" style="stop-color:#0478C9"/>
	</linearGradient>
	<path class="st12" d="M5.49,13.88c0,0,0.05,0.11,0.13,0.3c0.67,1.45,3.83,7.69,8.07,6.99c0,0,0.46,7.61,4.13,13.19
		s10.96,9.91,10.96,9.91s-6.04-1.44-9.58-4.4c-3.54-2.95-7.74-7.48-9.32-10.89S5.49,18.67,5.49,13.88z"/>
</g>
<g>
	<path class="st13" d="M57.87,24.38l-0.06-0.53c1.26-0.33,2.46-0.69,3.58-1.08l0.11,0.11v1.52c1.16-1.08,2.28-1.63,3.36-1.63
		c1.41,0,2.52,0.64,3.35,1.93c0.83,1.28,1.24,2.95,1.24,5.01c0,2.53-0.53,4.53-1.6,6c-1.07,1.47-2.58,2.21-4.54,2.21
		c-0.58,0-1.19-0.08-1.81-0.23v3.39c0,1.03,0.01,1.75,0.02,2.17c0.02,0.31,0.12,0.5,0.3,0.56l1.48,0.57l0.03,0.63
		c-1.17-0.03-2.13-0.05-2.87-0.05c-0.74,0-1.61,0.02-2.62,0.05l-0.05-0.63l1.3-0.53c0.18-0.07,0.27-0.23,0.28-0.48
		c0.01-0.75,0.02-1.89,0.02-3.42v-6.3c0-4.57-0.01-7.46-0.04-8.67L57.87,24.38z M61.51,36.28c0.65,0.2,1.28,0.29,1.89,0.29
		c1.24,0,2.18-0.54,2.81-1.61c0.63-1.07,0.94-2.61,0.94-4.61c0-1.89-0.3-3.31-0.9-4.27c-0.6-0.96-1.46-1.44-2.59-1.44
		c-0.81,0-1.53,0.23-2.16,0.68V36.28z"/>
	<path class="st13" d="M76.06,26.76v5.96c0,1.22,0.01,2.24,0.02,3.06c0.01,0.28,0.11,0.45,0.29,0.53l1.25,0.54l0.03,0.67
		c-0.89-0.03-1.79-0.05-2.68-0.05c-0.89,0-1.82,0.02-2.79,0.05l-0.04-0.67l1.39-0.57c0.19-0.08,0.3-0.24,0.3-0.48
		c0.02-0.84,0.02-1.86,0.02-3.08V20.17c0-1.03-0.01-1.89-0.02-2.57c-0.01-0.27-0.1-0.44-0.27-0.53l-1.4-0.6l-0.02-0.67
		c0.97,0.04,1.9,0.06,2.79,0.06c0.9,0,1.79-0.02,2.67-0.06l0.06,0.67l-1.28,0.54c-0.19,0.06-0.29,0.22-0.29,0.48
		c-0.01,0.74-0.02,1.62-0.02,2.62v5.25h8.2v-5.25c0-1-0.01-1.87-0.02-2.62c-0.01-0.26-0.11-0.42-0.29-0.48l-1.25-0.54l-0.02-0.67
		c0.92,0.04,1.82,0.06,2.71,0.06c0.89,0,1.81-0.02,2.75-0.06l0.04,0.67l-1.42,0.6c-0.17,0.08-0.26,0.26-0.27,0.53
		c-0.02,0.68-0.02,1.54-0.02,2.57v12.55c0,1.22,0.01,2.24,0.02,3.08c0.01,0.24,0.11,0.4,0.3,0.48l1.36,0.57l0.02,0.67
		c-0.99-0.03-1.94-0.05-2.84-0.05c-0.89,0-1.77,0.02-2.62,0.05l-0.04-0.67l1.27-0.54c0.19-0.07,0.29-0.25,0.29-0.53
		c0.01-0.83,0.02-1.85,0.02-3.06v-5.96H76.06z"/>
	<path class="st13" d="M90.67,23.85c1.32-0.34,2.54-0.7,3.66-1.08l0.1,0.11c-0.04,1.34-0.07,2.82-0.07,4.43v5.94
		c0,1.24,0.01,2.09,0.02,2.57c0.01,0.28,0.11,0.46,0.28,0.54l1.31,0.53L96,37.52c-1.04-0.03-1.92-0.05-2.66-0.05
		c-0.74,0-1.62,0.02-2.63,0.05l-0.05-0.63l1.31-0.53c0.17-0.08,0.27-0.24,0.28-0.48c0.02-0.4,0.02-1.08,0.02-2.03v-5.17
		c0-1.35-0.02-2.6-0.04-3.75l-1.5-0.56L90.67,23.85z M94.48,17.29c0,0.55-0.12,0.99-0.37,1.34c-0.25,0.35-0.57,0.52-0.96,0.52
		c-0.38,0-0.68-0.16-0.92-0.48c-0.24-0.32-0.36-0.74-0.36-1.27c0-0.56,0.12-1,0.37-1.32c0.25-0.32,0.57-0.49,0.98-0.49
		c0.37,0,0.67,0.15,0.9,0.44C94.36,16.32,94.48,16.74,94.48,17.29z"/>
	<path class="st13" d="M103.72,24.33c-0.44-0.16-0.91-0.25-1.42-0.25c-0.71,0-1.27,0.19-1.71,0.56c-0.43,0.38-0.65,0.89-0.65,1.54
		c0,0.63,0.14,1.12,0.42,1.49c0.28,0.36,0.81,0.72,1.57,1.07l0.92,0.43c1.04,0.49,1.8,1.04,2.28,1.66c0.48,0.62,0.73,1.44,0.73,2.45
		c0,1.43-0.41,2.56-1.22,3.38c-0.81,0.82-1.84,1.23-3.07,1.23c-1.14,0-2.31-0.32-3.5-0.96c0.25-1.34,0.46-2.65,0.62-3.93l0.44-0.09
		l0.81,3.33c0.43,0.23,0.97,0.34,1.63,0.34c0.7,0,1.26-0.2,1.67-0.59c0.42-0.39,0.63-0.94,0.63-1.66c0-0.66-0.14-1.18-0.42-1.56
		c-0.28-0.38-0.73-0.71-1.35-0.99l-1.17-0.54c-1.01-0.46-1.71-1.02-2.1-1.68c-0.39-0.66-0.58-1.47-0.58-2.44
		c0-1.35,0.37-2.42,1.12-3.2c0.75-0.78,1.73-1.17,2.96-1.17c1.14,0,2.18,0.23,3.11,0.68c-0.21,1.18-0.4,2.42-0.57,3.73l-0.43,0.11
		L103.72,24.33z"/>
	<path class="st13" d="M111.44,24.81c-0.04,3.49-0.07,6.3-0.07,8.43c0,1.07,0.12,1.81,0.35,2.22c0.23,0.41,0.68,0.61,1.33,0.61
		c0.52,0,1.19-0.09,2.03-0.28l0.07,0.7c-1.3,0.9-2.46,1.35-3.48,1.35c-0.83,0-1.45-0.3-1.86-0.91c-0.41-0.6-0.61-1.51-0.61-2.73
		c0-2,0.03-5.16,0.08-9.49l-1.55-0.53l-0.07-0.63l1.74-0.2l0.79-3.75c0.43-0.15,0.82-0.3,1.17-0.45l0.11,0.11
		c-0.02,1.25-0.03,2.41-0.03,3.5v0.57h3.39v1.47H111.44z"/>
	<path class="st13" d="M127.48,30.03c0,2.35-0.52,4.25-1.55,5.7c-1.03,1.45-2.35,2.17-3.94,2.17c-1.56,0-2.81-0.68-3.77-2.05
		c-0.96-1.37-1.44-3.15-1.44-5.36c0-2.27,0.5-4.12,1.51-5.56c1-1.44,2.33-2.16,3.99-2.16c1.56,0,2.82,0.66,3.78,1.99
		C127.01,26.08,127.48,27.84,127.48,30.03z M119.09,30.17c0,1.93,0.26,3.5,0.79,4.71c0.52,1.21,1.3,1.82,2.33,1.82
		c0.97,0,1.7-0.53,2.21-1.6c0.5-1.07,0.76-2.65,0.76-4.74c0-1.97-0.27-3.52-0.8-4.66c-0.53-1.14-1.3-1.7-2.31-1.7
		c-0.96,0-1.69,0.51-2.21,1.53C119.35,26.54,119.09,28.09,119.09,30.17z"/>
	<path class="st13" d="M129.76,23.85c1.25-0.33,2.45-0.69,3.58-1.08l0.11,0.11v1.81c1.39-1.28,2.75-1.92,4.09-1.92l0.06,0.09
		c-0.22,1.54-0.43,3.13-0.64,4.78l-0.45,0.11c-0.21-0.88-0.41-1.58-0.61-2.11c-0.19-0.53-0.5-0.8-0.92-0.8
		c-0.41,0-0.91,0.26-1.52,0.77v6.7c0,1.61,0.01,2.76,0.02,3.45c0.01,0.28,0.1,0.45,0.28,0.53l1.5,0.59l0.03,0.63
		c-1.17-0.03-2.13-0.05-2.87-0.05c-0.74,0-1.61,0.02-2.62,0.05l-0.04-0.63l1.31-0.53c0.18-0.08,0.27-0.24,0.28-0.48
		c0.01-0.44,0.01-1.08,0.01-1.9V28.7c0-1.68-0.02-2.94-0.04-3.76l-1.5-0.56L129.76,23.85z"/>
	<path class="st13" d="M139.63,23.12c0.95,0.03,1.79,0.05,2.52,0.05c0.5,0,1.31-0.02,2.41-0.05l0.04,0.63l-1.32,0.5
		c0.28,1.08,0.6,2.28,0.97,3.58c0.37,1.31,0.76,2.66,1.17,4.08c0.17,0.59,0.36,1.26,0.56,2.03c0.21-0.77,0.43-1.56,0.68-2.37
		c0.35-1.2,0.69-2.38,1.03-3.54c0.33-1.16,0.67-2.42,1.02-3.78l-1.28-0.5l-0.04-0.63c0.56,0.03,1.21,0.05,1.95,0.05
		c0.67,0,1.32-0.02,1.95-0.05l0.06,0.63l-1.05,0.4c-0.23,0.1-0.4,0.31-0.51,0.63c-0.28,0.88-0.58,1.84-0.9,2.88
		c-0.99,3.2-1.74,5.82-2.25,7.86c-0.35,1.38-0.66,2.8-0.93,4.25c-0.28,1.45-0.49,2.7-0.64,3.74c-0.07,0.51-0.2,0.89-0.41,1.15
		c-0.21,0.26-0.69,0.39-1.45,0.39c-0.77,0-1.52-0.04-2.25-0.11l-0.06-0.6c0.83-0.18,1.44-0.54,1.84-1.1
		c0.48-0.71,1.22-2.61,2.23-5.68l0.09-0.29l-0.16-0.06c-1.37-4.71-2.62-8.84-3.73-12.41c-0.1-0.31-0.27-0.52-0.52-0.63l-0.99-0.42
		L139.63,23.12z"/>
</g>
<g>
</g>
<g>
</g>
<g>
</g>
<g>
</g>
<g>
</g>
<g>
</g>
<g>
</g>
<g>
</g>
<g>
</g>
<g>
</g>
<g>
</g>
<g>
</g>
<g>
</g>
<g>
</g>
<g>
</g>
</svg>
