<?xml version="1.0" encoding="utf-8"?>
<!-- Generator: Adobe Illustrator 24.1.0, SVG Export Plug-In . SVG Version: 6.00 Build 0)  -->
<svg version="1.1" id="Layer_1" xmlns="http://www.w3.org/2000/svg" xmlns:xlink="http://www.w3.org/1999/xlink" x="0px" y="0px"
	 viewBox="0 0 96.5 97.3" style="enable-background:new 0 0 96.5 97.3;" xml:space="preserve">
<style type="text/css">
	.st0{fill:#679326;}
	.st1{opacity:0.46;fill:url(#SVGID_1_);enable-background:new    ;}
	.st2{fill:url(#SVGID_2_);stroke:url(#SVGID_3_);stroke-width:2;stroke-miterlimit:10;}
	.st3{opacity:0.45;}
	.st4{fill:url(#SVGID_4_);stroke:url(#SVGID_5_);stroke-miterlimit:10;}
	.st5{fill:url(#SVGID_6_);stroke:url(#SVGID_7_);stroke-width:0.25;stroke-miterlimit:10;}
	.st6{opacity:0.46;fill:url(#SVGID_8_);enable-background:new    ;}
	.st7{fill:#27A0D6;}
	.st8{fill:url(#SVGID_9_);}
	.st9{opacity:0.46;fill:url(#SVGID_10_);enable-background:new    ;}
	.st10{fill:url(#SVGID_11_);}
	.st11{opacity:0.3;fill:url(#SVGID_12_);stroke:#27A0D6;stroke-width:0.25;stroke-miterlimit:10;enable-background:new    ;}
	.st12{opacity:0.3;fill:url(#SVGID_13_);stroke:#27A0D6;stroke-width:0.25;stroke-miterlimit:10;enable-background:new    ;}
</style>
<g>
	<path class="st0" d="M95.8,43.7c-1.1,5.7-9.8,16.4-13.1,19.7c-3.3,3.3-11.3,10.5-16.6,15c-5.3,4.4-14.7,18-14.7,18
		s-1.5,0.9-3.1,0.9c0,0,0,0,0,0s0,0,0,0c-1.6-0.1-3.1-0.9-3.1-0.9s-9.4-13.6-14.7-18c-5.3-4.4-13.3-11.7-16.6-15
		c-3.3-3.3-11.9-14-13.1-19.7C-0.5,38,0.2,32.8,0.2,32.8s1.8,13.5,11.4,24l11,10c0,0,10.5,8.8,15.4,14.3l2.8,3.8l3,4.1l1.3,2.2
		c0,0,0.6,0.9,3.2,1.1h0.1c2.6-0.1,3.2-1.1,3.2-1.1l1.3-2.2l3-4.1l2.8-3.8c4.8-5.6,15.4-14.3,15.4-14.3l11-10
		c9.7-10.5,11.4-24,11.4-24S97,38,95.8,43.7z"/>
	
		<radialGradient id="SVGID_1_" cx="48.2453" cy="75.275" r="41.0444" gradientTransform="matrix(1 0 0 -1 0 140.3476)" gradientUnits="userSpaceOnUse">
		<stop  offset="0.4821" style="stop-color:#679326"/>
		<stop  offset="0.5186" style="stop-color:#6F9931"/>
		<stop  offset="0.5835" style="stop-color:#84A84F"/>
		<stop  offset="0.6692" style="stop-color:#A6C081"/>
		<stop  offset="0.7711" style="stop-color:#D5E1C3"/>
		<stop  offset="0.8538" style="stop-color:#FFFFFF"/>
	</radialGradient>
	<path class="st1" d="M95.8,43.7c-1.1,5.7-9.8,16.4-13.1,19.7c-3.3,3.3-11.3,10.5-16.6,15c-5.3,4.4-14.7,18-14.7,18
		s-1.5,0.9-3.1,0.9c0,0,0,0,0,0s0,0,0,0c-1.6-0.1-3.1-0.9-3.1-0.9s-9.4-13.6-14.7-18c-5.3-4.4-13.3-11.7-16.6-15
		c-3.3-3.3-11.9-14-13.1-19.7C-0.5,38,0.2,32.8,0.2,32.8s1.8,13.5,11.4,24l11,10c0,0,10.5,8.8,15.4,14.3l2.8,3.8l3,4.1l1.3,2.2
		c0,0,0.6,0.9,3.2,1.1h0.1c2.6-0.1,3.2-1.1,3.2-1.1l1.3-2.2l3-4.1l2.8-3.8c4.8-5.6,15.4-14.3,15.4-14.3l11-10
		c9.7-10.5,11.4-24,11.4-24S97,38,95.8,43.7z"/>
	<g>
		
			<linearGradient id="SVGID_2_" gradientUnits="userSpaceOnUse" x1="53.6389" y1="118.4382" x2="72.8213" y2="85.2133" gradientTransform="matrix(1 0 0 -1 0 140.3476)">
			<stop  offset="0" style="stop-color:#9FC73F"/>
			<stop  offset="0.8538" style="stop-color:#679326"/>
		</linearGradient>
		
			<linearGradient id="SVGID_3_" gradientUnits="userSpaceOnUse" x1="53.0869" y1="119.3944" x2="73.373" y2="84.2576" gradientTransform="matrix(1 0 0 -1 0 140.3476)">
			<stop  offset="0" style="stop-color:#9FC73F"/>
			<stop  offset="0.8538" style="stop-color:#679326"/>
		</linearGradient>
		<path class="st2" d="M60.3,21.8l7.3-0.1c2.8,0,5.2,0.8,7.3,2.4c2.3,2,3.5,4.6,3.6,7.7c0,3.6-1.1,6.3-3.2,8.3c-2.2,2-4.8,3-8,3
			c-1.9,0-2.9-0.6-2.9-1.7c0-0.2,0-0.3,0.1-0.3s0.3,0.1,0.8,0.2c0.4,0.1,0.9,0.2,1.3,0.2c2.3,0,4.2-0.8,5.4-2.6
			c1.3-1.7,1.9-3.8,1.9-6.2c0-3.8-1.2-6.4-3.5-8c-1.3-0.9-2.9-1.3-4.6-1.3c-1.7,0-2.7,0.2-2.9,0.5c-0.2,0.5-0.3,1.9-0.3,4.2v23.9
			c0,2.2,0.1,3.6,0.3,4.2c0.1,0.4,1.1,0.7,2.9,0.9c0.3,0,0.4,0,0.6,0c0.2,0.2,0.3,0.6,0.2,0.9s-0.1,0.6-0.2,0.7
			c-3.5-0.2-5.5-0.3-6-0.3s-2.5,0.1-6,0.3c-0.2-0.2-0.3-0.5-0.2-0.9c0.1-0.4,0.1-0.6,0.2-0.7c1,0,1.8-0.1,2.5-0.3s1-0.4,1.1-0.6
			c0.2-0.6,0.3-2,0.3-4.2v-24c0-2.2-0.1-3.6-0.3-4.2c-0.1-0.4-1.1-0.7-2.9-0.9c-0.3,0-0.4,0-0.6,0c-0.2-0.2-0.3-0.6-0.2-0.9
			c0.1-0.4,0.1-0.6,0.2-0.7C57.8,21.7,59.8,21.8,60.3,21.8z"/>
	</g>
	<g class="st3">
		
			<linearGradient id="SVGID_4_" gradientUnits="userSpaceOnUse" x1="54.9452" y1="100.57" x2="79.3676" y2="100.57" gradientTransform="matrix(1 0 0 -1 0 140.3476)">
			<stop  offset="0" style="stop-color:#9FC73F"/>
			<stop  offset="0.8538" style="stop-color:#FFFFFF"/>
		</linearGradient>
		
			<linearGradient id="SVGID_5_" gradientUnits="userSpaceOnUse" x1="54.4452" y1="100.57" x2="79.8676" y2="100.57" gradientTransform="matrix(1 0 0 -1 0 140.3476)">
			<stop  offset="0" style="stop-color:#9FC73F"/>
			<stop  offset="0.8538" style="stop-color:#FFFFFF"/>
		</linearGradient>
		<path class="st4" d="M61.2,21.4l7.3-0.1c2.8,0,5.2,0.8,7.3,2.4c2.3,2,3.5,4.6,3.6,7.7c0,3.6-1.1,6.3-3.2,8.3s-4.8,3-8,3
			c-1.9,0-2.9-0.6-2.9-1.7c0-0.2,0-0.3,0.1-0.3s0.3,0.1,0.8,0.2c0.4,0.1,0.9,0.2,1.3,0.2c2.3,0,4.2-0.8,5.4-2.6
			c1.3-1.7,1.9-3.8,1.9-6.2c0-3.8-1.2-6.4-3.5-8c-1.3-0.9-2.9-1.3-4.6-1.3c-1.8,0-2.7,0.2-2.9,0.5c-0.2,0.5-0.3,1.9-0.3,4.2v23.9
			c0,2.2,0.1,3.6,0.3,4.2c0.1,0.4,1.1,0.7,2.9,0.9c0.3,0,0.4,0,0.6,0c0.2,0.2,0.3,0.6,0.2,0.9c-0.1,0.4-0.1,0.6-0.2,0.7
			c-3.5-0.2-5.5-0.3-6-0.3s-2.5,0.1-6,0.3c-0.2-0.2-0.3-0.5-0.2-0.9c0.1-0.4,0.1-0.6,0.2-0.7c1,0,1.8-0.1,2.5-0.3s1-0.4,1.1-0.6
			c0.2-0.6,0.3-2,0.3-4.2v-24c0-2.2-0.1-3.6-0.3-4.2c-0.1-0.4-1.1-0.7-2.9-0.9c-0.3,0-0.4,0-0.6,0c-0.2-0.2-0.3-0.6-0.2-0.9
			c0.1-0.4,0.1-0.6,0.2-0.7C58.7,21.3,60.7,21.4,61.2,21.4z"/>
	</g>
	
		<linearGradient id="SVGID_6_" gradientUnits="userSpaceOnUse" x1="7.236824e-02" y1="125.9188" x2="44.7176" y2="125.9188" gradientTransform="matrix(1 0 0 -1 0 140.3476)">
		<stop  offset="0" style="stop-color:#9FC73F"/>
		<stop  offset="0.8538" style="stop-color:#679326"/>
	</linearGradient>
	
		<linearGradient id="SVGID_7_" gradientUnits="userSpaceOnUse" x1="-5.263176e-02" y1="125.9757" x2="45.5145" y2="125.9757" gradientTransform="matrix(1 0 0 -1 0 140.3476)">
		<stop  offset="0" style="stop-color:#9FC73F"/>
		<stop  offset="0.8538" style="stop-color:#679326"/>
	</linearGradient>
	<path class="st5" d="M44.7,8.3c-6-3.9-13.6-5.6-21.4-4.1C10.5,6.7,1.2,17,0.2,28.9C-1,15.4,7.9,3,21,0.5C30-1.3,38.8,2,44.7,8.3z"
		/>
	
		<linearGradient id="SVGID_8_" gradientUnits="userSpaceOnUse" x1="7.236824e-02" y1="125.9188" x2="44.7176" y2="125.9188" gradientTransform="matrix(1 0 0 -1 0 140.3476)">
		<stop  offset="0" style="stop-color:#679326"/>
		<stop  offset="9.300000e-02" style="stop-color:#729B35"/>
		<stop  offset="0.2729" style="stop-color:#8EAF5D"/>
		<stop  offset="0.5215" style="stop-color:#BBCF9E"/>
		<stop  offset="0.8268" style="stop-color:#F9FBF7"/>
		<stop  offset="0.8538" style="stop-color:#FFFFFF"/>
	</linearGradient>
	<path class="st6" d="M44.7,8.3c-6-3.9-13.6-5.6-21.4-4.1C10.5,6.7,1.2,17,0.2,28.9C-1,15.4,7.9,3,21,0.5C30-1.3,38.8,2,44.7,8.3z"
		/>
	<path class="st7" d="M95.8,26.6c0,0-1.7-16.3-20.7-19.7c0,0-14.7-2.4-25.1,8.9S36.9,35,36.9,35s-5.1,9.4-1.9,20.8
		c3.2,11.4,15.4,24,15.4,24s-13.5-6.7-21.2-19.2s-8-25.5-8-25.5c-0.1,0.3,6.7-0.3,10.7-5.8c3.4-4.7,11.1-15.4,16.4-19.9
		C57.4,1.6,62,0.6,69.5,0.5c7-0.1,16.4,3.2,20.9,8.9S95.8,26.6,95.8,26.6z"/>
	
		<linearGradient id="SVGID_9_" gradientUnits="userSpaceOnUse" x1="24.1419" y1="113.4657" x2="13.7333" y2="123.8743" gradientTransform="matrix(1 0 0 -1 0 140.3476)">
		<stop  offset="0" style="stop-color:#9FC73F"/>
		<stop  offset="0.8538" style="stop-color:#679326"/>
	</linearGradient>
	<circle class="st8" cx="18.9" cy="21.7" r="7.4"/>
	
		<linearGradient id="SVGID_10_" gradientUnits="userSpaceOnUse" x1="109.6756" y1="970.6107" x2="123.51" y2="970.6107" gradientTransform="matrix(-0.4342 -0.925 -0.9401 0.4413 982.3932 -298.6246)">
		<stop  offset="0" style="stop-color:#679326"/>
		<stop  offset="9.300000e-02" style="stop-color:#729B35"/>
		<stop  offset="0.2729" style="stop-color:#8EAF5D"/>
		<stop  offset="0.5215" style="stop-color:#BBCF9E"/>
		<stop  offset="0.8268" style="stop-color:#F9FBF7"/>
		<stop  offset="0.8538" style="stop-color:#FFFFFF"/>
	</linearGradient>
	<path class="st9" d="M16.3,15.5c3.6-1.7,7.8-0.2,9.5,3.4c1.7,3.5,0.1,7.8-3.5,9.5s-7.8,0.2-9.5-3.4S12.7,17.1,16.3,15.5z"/>
	
		<linearGradient id="SVGID_11_" gradientUnits="userSpaceOnUse" x1="-2.396" y1="106.0364" x2="56.8547" y2="71.8279" gradientTransform="matrix(1 0 0 -1 0 140.3476)">
		<stop  offset="0" style="stop-color:#89CDF6"/>
		<stop  offset="0.1492" style="stop-color:#70BDEE"/>
		<stop  offset="0.4635" style="stop-color:#3295D9"/>
		<stop  offset="0.6769" style="stop-color:#0478C9"/>
	</linearGradient>
	<path class="st10" d="M5.3,21c0,0,0.1,0.2,0.3,0.6c1.3,2.8,7.4,14.9,15.6,13.5c0,0,0.9,14.7,8,25.5s21.2,19.2,21.2,19.2
		S38.7,77,31.8,71.3s-15-14.5-18-21.1S5.3,30.3,5.3,21z"/>
	
		<radialGradient id="SVGID_12_" cx="58.4573" cy="100.2006" r="38.5133" gradientTransform="matrix(1 0 0 -1 0 140.3476)" gradientUnits="userSpaceOnUse">
		<stop  offset="0.1897" style="stop-color:#27A0D6"/>
		<stop  offset="0.411" style="stop-color:#29A1D6"/>
		<stop  offset="0.4907" style="stop-color:#30A4D8"/>
		<stop  offset="0.5476" style="stop-color:#3BA9DA"/>
		<stop  offset="0.5935" style="stop-color:#4CB0DD"/>
		<stop  offset="0.6329" style="stop-color:#62BAE1"/>
		<stop  offset="0.6677" style="stop-color:#7EC6E6"/>
		<stop  offset="0.6993" style="stop-color:#9ED4ED"/>
		<stop  offset="0.7283" style="stop-color:#C4E5F4"/>
		<stop  offset="0.7541" style="stop-color:#EDF7FC"/>
		<stop  offset="0.7641" style="stop-color:#FFFFFF"/>
	</radialGradient>
	<path class="st11" d="M95.8,26.6c0,0-1.7-16.3-20.7-19.7c0,0-14.7-2.4-25.1,8.9S36.9,35,36.9,35s-5.1,9.4-1.9,20.8
		c3.2,11.4,15.4,24,15.4,24s-13.5-6.7-21.2-19.2s-8-25.5-8-25.5c-0.1,0.3,6.7-0.3,10.7-5.8c3.4-4.7,11.1-15.4,16.4-19.9
		C57.4,1.6,62,0.6,69.5,0.5c7-0.1,16.4,3.2,20.9,8.9S95.8,26.6,95.8,26.6z"/>
	
		<linearGradient id="SVGID_13_" gradientUnits="userSpaceOnUse" x1="-2.396" y1="106.0364" x2="56.8547" y2="71.8279" gradientTransform="matrix(1 0 0 -1 0 140.3476)">
		<stop  offset="0" style="stop-color:#FFFFFF"/>
		<stop  offset="8.480000e-02" style="stop-color:#E6F2FA"/>
		<stop  offset="0.2648" style="stop-color:#A7D0EC"/>
		<stop  offset="0.5233" style="stop-color:#439AD7"/>
		<stop  offset="0.6769" style="stop-color:#0478C9"/>
	</linearGradient>
	<path class="st12" d="M5.3,21c0,0,0.1,0.2,0.3,0.6c1.3,2.8,7.4,14.9,15.6,13.5c0,0,0.9,14.7,8,25.5s21.2,19.2,21.2,19.2
		S38.7,77,31.8,71.3s-15-14.5-18-21.1S5.3,30.3,5.3,21z"/>
</g>
</svg>
