<?xml version="1.0" encoding="utf-8"?>
<!-- Generator: Adobe Illustrator 24.1.0, SVG Export Plug-In . SVG Version: 6.00 Build 0)  -->
<svg version="1.1" id="Layer_1" xmlns="http://www.w3.org/2000/svg" xmlns:xlink="http://www.w3.org/1999/xlink" x="0px" y="0px"
	 viewBox="0 0 500 500" style="enable-background:new 0 0 500 500;" xml:space="preserve">
<style type="text/css">
	.st0{fill:#EDEBED;}
	.st1{fill:#A5CDFF;}
	.st2{fill:#8CB4EB;}
	.st3{fill:#F7D291;}
	.st4{fill:#F0C382;}
	.st5{fill:#FFE1A0;}
	.st6{fill:#A06E50;}
	.st7{fill:#CD916E;}
	.st8{fill:#B67F5F;}
	.st9{fill:#6E5A64;}
	.st10{fill:#E3AA75;}
	.st11{clip-path:url(#SVGID_2_);fill:#D13428;}
	.st12{opacity:0.21;clip-path:url(#SVGID_2_);fill:#FFFFFF;}
	.st13{clip-path:url(#SVGID_2_);fill:#DF4937;}
	.st14{opacity:0.08;fill:#FFFFFF;}
	.st15{fill:#E4EAF8;}
</style>
<g>
	<path class="st0" d="M389.79,359.02l-82.52-24.95H163.93l-82.52,24.95c-19.99,6.05-33.72,24.91-33.72,46.33v70.51
		c0,13.33,10.52,24.14,23.49,24.14h328.85c12.97,0,23.49-10.81,23.49-24.14v-70.51C423.51,383.92,409.78,365.06,389.79,359.02z"/>
	<polygon class="st1" points="282.99,500 201.85,500 185.62,339.03 299.21,339.03 	"/>
	<path class="st2" d="M185.62,334.02l2.43,24.09c13.37,14.82,32.74,24.2,54.37,24.2s41-9.38,54.37-24.2l2.43-24.09H185.62z"/>
	<path class="st3" d="M242.42,373.23L242.42,373.23c-31.37,0-56.8-25.22-56.8-56.34v-56.34h113.59v56.34
		C299.21,348.01,273.79,373.23,242.42,373.23z"/>
	<path class="st4" d="M185.62,291.6c17.05,9.03,36.38,14.24,56.8,14.24s39.75-5.21,56.8-14.24v-34.05H185.62V291.6z"/>
	<path class="st5" d="M351.95,152.92h-4.06V72.44H136.94v80.48h-4.06c-11.16,0-20.28,9.05-20.28,20.12s9.13,20.12,20.28,20.12h4.47
		c4.16,54.01,49.55,96.58,105.07,96.58s100.92-42.57,105.07-96.58h4.47c11.16,0,20.28-9.05,20.28-20.12S363.11,152.92,351.95,152.92
		z"/>
	<path class="st6" d="M176.49,40.24l1.01,32.19c0,0-24.34,24.14-24.34,56.34v9.94c0,8.12-6.09,14.97-14.22,15.97l-18.24,2.26V88.53
		C120.71,61.86,146.06,38.9,176.49,40.24z"/>
	<path class="st7" d="M308.34,16.1l-1.01,56.34c0,0,24.34,24.14,24.34,56.34v9.94c0,8.12,6.09,14.97,14.22,15.97l18.24,2.26V64.39
		C364.13,37.72,338.77,14.76,308.34,16.1z"/>
	<path class="st8" d="M258.14,0c-67.7,0-80.67,20.41-132.8,36.88c-3.58,1.13-5.19,5.25-3.17,8.39
		c11.31,17.55,53.41,63.3,173.02,32.23c14.01-3.64,24.78-14.84,27.62-28.92l0,0c3.29-16.32-6.71-32.47-21.74-39.86
		C289.14,2.85,273.48,0,258.14,0z"/>
</g>
<g>
	<path class="st9" d="M199.82,189.06c-3.92,0-7.09-3.18-7.09-7.09v-7.09c0-3.92,3.17-7.09,7.09-7.09s7.09,3.18,7.09,7.09v7.09
		C206.91,185.88,203.74,189.06,199.82,189.06z"/>
	<path class="st9" d="M284.93,189.06c-3.92,0-7.09-3.18-7.09-7.09v-7.09c0-3.92,3.17-7.09,7.09-7.09c3.92,0,7.09,3.18,7.09,7.09
		v7.09C292.02,185.88,288.85,189.06,284.93,189.06z"/>
</g>
<g>
	<path class="st6" d="M206.91,160.07h-14.18c-3.92,0-7.09-3.18-7.09-7.09s3.17-7.09,7.09-7.09h14.18c3.92,0,7.09,3.18,7.09,7.09
		S210.83,160.07,206.91,160.07z"/>
	<path class="st6" d="M292.02,160.07h-14.18c-3.92,0-7.09-3.18-7.09-7.09s3.17-7.09,7.09-7.09h14.18c3.92,0,7.09,3.18,7.09,7.09
		S295.94,160.07,292.02,160.07z"/>
</g>
<path class="st10" d="M242.37,254.5c-10.65,0-20.46-3.41-26.26-9.14c-2.79-2.76-2.82-7.24-0.07-10.03
	c2.76-2.79,7.25-2.82,10.03-0.07c2.36,2.33,8.04,5.05,16.3,5.05s13.94-2.72,16.3-5.05c2.78-2.75,7.27-2.72,10.03,0.07
	c2.75,2.78,2.72,7.27-0.07,10.03C262.83,251.09,253.02,254.5,242.37,254.5z"/>
<g>
	<g>
		<defs>
			<rect id="SVGID_1_" x="322.99" y="368.68" width="135.45" height="131.32"/>
		</defs>
		<clipPath id="SVGID_2_">
			<use xlink:href="#SVGID_1_"  style="overflow:visible;"/>
		</clipPath>
		<path class="st11" d="M385.35,499.15c-31.9-17.26-62.32-49.91-62.36-90.67c-0.01-10.59,3.59-20.56,10.13-28.07
			c16.05-18.43,42.85-14.44,54.32,7.89c0.54,0.56,0.89,0.69,0.97,0.69c0.12,0,0.62-0.36,0.84-0.76
			c6.84-12.6,17.43-19.55,29.81-19.56c18.96-0.02,34.61,17.67,34.64,39.66c0.02,24.99-10.72,48.02-31.93,68.45
			c-12.7,12.23-25.39,19.71-30.27,22.36C389.56,500.2,387.3,500.21,385.35,499.15L385.35,499.15z M389.09,388.54L389.09,388.54
			L389.09,388.54z M389.09,388.54"/>
		<path class="st12" d="M331.05,408.48"/>
		<path class="st13" d="M330.79,408.48c0.03,37.7,29.74,67.28,57.63,82.45c4.78-2.62,16.55-9.64,28.33-20.99
			c19.36-18.65,29.17-39.38,29.15-61.6c-0.03-29.76-34.7-43.62-50.03-15.38c-3,5.53-9.37,7.16-14.35,1.2
			c-0.82-0.98-5.97-13.96-20.33-16.18C344.96,375.47,330.78,390.02,330.79,408.48L330.79,408.48z M330.79,408.48"/>
	</g>
	<path class="st14" d="M338.85,408.48c-0.01-15.47,9.95-28.2,22.74-30.43c-0.13-0.02-0.27-0.05-0.4-0.07
		c-16.23-2.51-30.41,12.05-30.4,30.5c0.03,37.7,29.74,67.28,57.63,82.45c1.03-0.57,2.38-1.33,3.99-2.31
		C365.78,472.87,338.88,444.35,338.85,408.48L338.85,408.48z M338.85,408.48"/>
	<path class="st15" d="M456.43,430.73h-25.62l-6.84-28.25c-0.53-2.19-3.2-2.25-3.84-0.14l-14.1,46.32l-9.99-30.69
		c-0.62-1.91-2.95-2.02-3.71-0.18l-5.31,12.93h-28.23c-1.11,0-2.01,1.03-2.01,2.31c0,1.27,0.9,2.31,2.01,2.31h29.51
		c0.78,0,1.49-0.52,1.82-1.32l3.82-9.3l10.27,31.54c0.66,2.02,3.17,1.99,3.79-0.05l13.82-45.39l5.52,22.83
		c0.24,1,1.04,1.69,1.94,1.69h27.16c1.11,0,2.01-1.03,2.01-2.31C458.44,431.77,457.54,430.73,456.43,430.73L456.43,430.73z
		 M456.43,430.73"/>
</g>
<g>
</g>
<g>
</g>
<g>
</g>
<g>
</g>
<g>
</g>
<g>
</g>
</svg>
