<?xml version="1.0" encoding="utf-8"?>
<!-- Generator: Adobe Illustrator 24.1.0, SVG Export Plug-In . SVG Version: 6.00 Build 0)  -->
<svg version="1.1" id="Layer_1" xmlns="http://www.w3.org/2000/svg" xmlns:xlink="http://www.w3.org/1999/xlink" x="0px" y="0px"
	 viewBox="0 0 500 500" style="enable-background:new 0 0 500 500;" xml:space="preserve">
<style type="text/css">
	.st0{fill:#D71515;}
	.st1{fill:#4398D1;}
	.st2{fill:#939393;}
	.st3{fill:#E0E0E0;}
	.st4{fill:#87CED9;}
	.st5{fill:#6EC1D4;}
	.st6{fill:#3E8CC7;}
</style>
<path class="st0" d="M350.07,361.77"/>
<g>
	<g>
		<path class="st1" d="M352.91,0c-23.8,0-43.1,19.3-43.1,43.1s-19.3,43.1-43.1,43.1v43.1h103.43c23.8,0,43.1-19.3,43.1-43.1
			c23.8,0,43.1-19.3,43.1-43.1c23.8,0,43.1-19.3,43.1-43.1H352.91z"/>
		<path class="st1" d="M189.14,43.1c0-23.8-19.3-43.1-43.1-43.1H-0.49c0,23.8,19.3,43.1,43.1,43.1c0,23.8,19.3,43.1,43.1,43.1
			c0,23.8,19.3,43.1,43.1,43.1h103.43V86.2C208.43,86.2,189.14,66.9,189.14,43.1z"/>
	</g>
	<path class="st2" d="M249.47,0c-14.28-0.02-25.88,11.54-25.89,25.82c-0.01,7.39,3.14,14.43,8.65,19.34v446.15h34.48V45.17
		c10.66-9.5,11.61-25.84,2.1-36.51C263.9,3.14,256.86-0.01,249.47,0z"/>
	<g>
		<rect x="232.2" y="318.92" class="st3" width="34.48" height="25.86"/>
		<rect x="232.2" y="413.74" class="st3" width="34.48" height="25.86"/>
	</g>
	<path class="st4" d="M249.47,499.94c-0.78,0.09-1.55,0.09-2.33,0l0,0c-35.7,0-64.65-28.94-64.65-64.65l0,0l0,0
		c0-35.7,28.94-64.65,64.65-64.65l0,0h45.43c14.28,0,25.86-11.58,25.86-25.86l0,0c0-14.28-11.58-25.86-25.86-25.86h-86.2v-43.1h86.2
		c38.08,0,68.96,30.88,68.96,68.96l0,0c0,38.08-30.88,68.96-68.96,68.96h-37.58c-16.19-0.05-29.34,13.03-29.39,29.22
		c0,0.06,0,0.11,0,0.17l0,0l0,0c0.04,6.8,2.38,13.39,6.64,18.7l11.55,14.14"/>
	<path class="st5" d="M316.88,336.16h44.05c-4.34-34.45-33.62-60.3-68.35-60.34v43.1C303.5,318.96,313.23,325.85,316.88,336.16z"/>
	<path class="st4" d="M145.18,318.32c-38.87-4.78-68.09-37.81-68.09-76.97l0,0c0-42.85,34.73-77.58,77.58-77.58h17.24l25.86,25.86
		v17.24h-43.1c-19.04,0-34.48,15.44-34.48,34.48l0,0c0,19.04,15.44,34.48,34.48,34.48h137.91"/>
	<g>
		<path class="st1" d="M344.29,163.77h-17.24l-25.86,25.86v17.24h43.1c19.04,0,34.48,15.44,34.48,34.48s-15.44,34.48-34.48,34.48
			H206.38c-38.08,0.09-68.88,31.05-68.78,69.13c0.08,30.58,20.29,57.47,49.65,66.03c9.99-24.51,33.87-40.47,60.34-40.34h-41.2
			c-14.28,0-25.86-11.58-25.86-25.86s11.58-25.86,25.86-25.86h137.91c42.85,0,77.58-34.73,77.58-77.58S387.13,163.77,344.29,163.77z
			"/>
		<path class="st1" d="M309.81,435.29c0.02-7.34-1.23-14.64-3.71-21.55l-0.6-1.29c-4.26,0.86-8.59,1.3-12.93,1.29h-37.58
			c-1.58-0.09-3.16-0.09-4.74,0c10.27,5.51,16.62,16.27,16.46,27.93v1.47c-0.06,8.65-3.94,16.82-10.6,22.32l-12.33,10.34l-5.6,4.65
			c-4.59,3.86-5.19,10.71-1.33,15.3c1.85,2.21,4.5,3.59,7.36,3.84h5.26C283.37,497.37,309.74,469.26,309.81,435.29z"/>
	</g>
	<g>
		<path class="st6" d="M264.73,430.98h45.08c-0.32-5.87-1.45-11.68-3.36-17.24l-0.6-1.29c-4.37,0.89-8.82,1.32-13.27,1.29h-37.58
			c-1.58-0.09-3.16-0.09-4.74,0C257.06,417.48,262.22,423.63,264.73,430.98z"/>
		<path class="st6" d="M442.12,0c-24.57,75.85-112.14,105.16-175.41,120.67v8.62h103.43c23.8,0,43.1-19.3,43.1-43.1
			c23.8,0,43.1-19.3,43.1-43.1c23.8,0,43.1-19.3,43.1-43.1H442.12z"/>
	</g>
</g>
<g>
</g>
<g>
</g>
<g>
</g>
<g>
</g>
<g>
</g>
<g>
</g>
</svg>
