<?xml version="1.0" encoding="utf-8"?>
<!-- Generator: Adobe Illustrator 24.1.0, SVG Export Plug-In . SVG Version: 6.00 Build 0)  -->
<svg version="1.1" id="Layer_1" xmlns="http://www.w3.org/2000/svg" xmlns:xlink="http://www.w3.org/1999/xlink" x="0px" y="0px"
	 viewBox="0 0 500 500" style="enable-background:new 0 0 500 500;" xml:space="preserve">
<style type="text/css">
	.st0{fill-rule:evenodd;clip-rule:evenodd;fill:#001E3B;}
	.st1{fill-rule:evenodd;clip-rule:evenodd;fill:#5CD3F5;}
	.st2{opacity:0.1;fill:#5CD3F5;}
</style>
<g>
	<g>
		<g>
			<path class="st0" d="M428.27,499.75H71.52c-39.06,0-70.73-31.67-70.73-70.73V72.27c0-39.06,31.67-70.73,70.73-70.73h356.76
				C467.33,1.54,499,33.2,499,72.27v356.76C499,468.09,467.33,499.75,428.27,499.75z"/>
		</g>
		<g>
			<path class="st1" d="M232.03,88.65c-39.28,10.95-53,37.18-6.05,43.04c29.36-11.13,36.38-14.19,65.73-1.55
				c47.56-11.2,33.83-17.54,3.2-43.48c11.84-7.34,27.63,3.83,51.61,22.35c18.5,13.66-63.97,45.59-71.7,44.39l1.17,22.91
				c37.5-1.41,100.23-3.29,81.62-44.2c0.84-23.79,18.77-3.19,13.15,24.44c-8.33,26.31-61.2,27.7-94.7,29.68
				c-2.22,4.56,2.43,14.24,0.24,18.8c37.56,6.52,82.19,16.98,110.94-20.83l1.45,16.01c-23.49,28.03-82.57,21.41-110.95,19.02
				c0.43,7.42,0.18,9.42,0.62,16.84c34.53,8.02,73.03,35.5,115.43-14.24l2.54,19.67c-36.96,35.92-81.13,20.77-118.06,9.07
				c0.42,3.91,0.18,11.24,0.6,15.18c23.32,18.39,84.58,57.03,119.99-3.27l1.15,19.02c-33.63,36.64-69.83,24.58-96.17,12.92
				l1.23,13.7c15.36,31.93,76.57,43.12,95.78-4.42l0.56,17.69c-8.96,20.64-42.93,29.92-69.47,22.84
				c1.73,20.46,39.42,44.34,69.61,5.42l1.05,20.14c-15.28,6.12-32.53,11.58-47.83,17.68c4.64,21.17,21.4,24.38,45.38-3.21
				c0,3.95,0.65,8.53,0.65,12.48c-8.07,8.73-20.97,15.05-29.04,23.79c-4.64,11.49,4.56,14.56,24.46,3.07
				c-1.89,4.73,3.6,4.86,1.45,7.18c-7.04,7.56-17.59,9.7-24.6,17.21c-31.79-63.56-50.92-104.09-95.18-146.94
				c-10.62,0.88-20.59,0.42-31.19,1.28c-37.14,39.96-72.88,84.07-89.81,144.81c-9.38-4.22-12.95-5.66-26.79-15.89
				c1.71-1.63-2.25-8.6-0.17-7.98c6.26,1.9,15.01,11.2,20.2,11.75c3.8,0.4,1.76-12.1,4.99-12.67
				c-13.07-12.64-24.55-18.36-32.34-26.41l-0.95-12.34c11.1,11.89,22.61,23.69,38.14,24.91c2.8-12.23,9.24-18.59,11.8-25.02
				c-28.41,3.14-41.08-7.21-51.12-20.82v-14.41c16.91,20.81,25.62,30.01,60.91,17.2c0.85-4.78,14.22-21.12,15.08-25.92
				c-50.96,17.68-60.89-5.51-76.64-19.47l-0.05-17.02c13.47,18.21,47.29,55.77,95.61,7.95c0-3.5,0-11.74,0-15.24
				c-34.12,15.33-69.17,17.44-96.28-16.28l-0.65-15.72c46.26,55.99,89.38,24.65,126.4,2.63c-0.86-4.38,0.27-10.79-0.58-15.15
				c-52.43,24.16-91.88,10.16-121.16-8.44l-0.83-18.32c31.4,32.01,78.85,33.86,122.57,9.88c-0.43-4.37-0.2-11.45-0.61-15.81
				c-56.98,14.48-91.07,0.71-112.88-20.97l-0.23-17.08c25.47,36.44,68.64,36.75,113.44,24.31c-0.43-6.12-0.86-12.21-1.26-18.32
				c-44.54,5.01-82.69-4.95-93.92-29.24c-5.39-21.27-0.49-43.25,13.25-34.93c-17.57,33.98,10.87,63.47,80.61,53.56
				c-0.42-3.49-0.92-18.57-1.35-22.04c-30.69-12.04-68.66-19.6-62.26-42.02C192.58,89.75,209.34,80.11,232.03,88.65L232.03,88.65z"
				/>
			<path class="st2" d="M411.22,236.74L499,405.53V256.61c0,0-86.25-225.68-201.55-217.01V1.5h-83.16v36.57
				c-118.79,0-213.5,215.4-213.5,215.4v146.41l114.73-193.26C114.63,396.87,101.34,448.14,91.48,500h345.89
				C429.47,384.46,412.14,381.15,411.22,236.74z"/>
		</g>
	</g>
	<path class="st2" d="M408.61,236.75l86.8,168.7V256.61c0,0-85.28-225.57-199.29-216.91V1.62H213.9v36.56
		C96.44,38.18,2.79,253.47,2.79,253.47v146.34l113.45-193.16c-0.88,190.15-14.03,241.4-23.77,293.23h342.02
		C426.67,384.4,409.53,381.09,408.61,236.75z"/>
</g>
<g>
</g>
<g>
</g>
<g>
</g>
<g>
</g>
<g>
</g>
<g>
</g>
</svg>
